<?xml version="1.0" encoding="UTF-8"?><svg id="Layer_2" xmlns="http://www.w3.org/2000/svg" viewBox="0 0 200.81 61.94"><defs><style>.cls-1{fill:#1dbf3d;}.cls-2{isolation:isolate;}</style></defs><g id="Layer_1-2"><g id="_寮祭について" class="cls-2"><g class="cls-2"><path class="cls-1" d="M47.99,54.68h-2.46c.12.03.24.09.33.15.09.03.21.12.21.27,0,.12-.12.27-.54.48-.3.21-.3.6-.3,1.11,0,.96.09,1.83.09,2.79,0,1.38-1.62,2.46-2.73,2.46-.15,0-.27-.09-.39-.27-.45-.63-2.22-.78-3-.93-.18-.03-.24-.21-.24-.42,0-.3.15-.63.33-.63h.03c.93.09,1.95.27,2.79.27.93,0,1.62-.21,1.62-1.02v-.03s.03-.24.03-.81c0-1.08-.09-2.88-.18-3.42h-3.03s.03.33.03.33c0,.48-.51.75-.96.75-.36,0-.69-.18-.69-.6v-.09c.15-1.53.24-3.36.24-4.71,0-.33-.03-.66-.03-.93v-.09c-4.65,4.32-9.03,5.73-9.06,5.73-.36,0-.72-.48-.72-.81,0-.12.06-.21.18-.27,5.79-2.19,10.11-6.9,12.24-9.99h-1.2c-.84,0-4.14.21-5.73.42h-.06c-.54,0-1.56-1.26-1.56-1.71,0-.09,0-.12.06-.15-.15.03-.27.06-.39.06-.6,0-.99-.48-.99-1.02,0-.39.24-.84.81-1.11,1.47-.72,2.13-1.86,2.37-3.72.03-.18.24-.27.48-.27.33,0,.75.18.75.45,0,0-.03.72-.12,1.23h7.38c0-.42-.03-.93-.03-1.5-.06-.93-.15-1.29-.33-2.22,0-.06-.03-.15-.03-.21,0-.12.06-.21.27-.21h.12c2.55.39,2.88.48,2.88.9,0,.3-.39.63-.96.87-.21.09-.39.18-.39,2.37h7.02c.45,0,.54-.27.78-.54.24-.24.45-.39.66-.39.27,0,2.73,1.17,2.73,2.22,0,.45-.48.81-1.59.81-.93,0-1.59.63-2.16,1.23-.06.06-.18.09-.27.09-.33,0-.75-.24-.75-.54,0-.06.03-.12.06-.18.69-1.17.72-1.29.72-1.35,0-.03-.03-.06-.3-.06h-16.11c-.66,1.98-2.07,2.91-2.55,3.06h.09c2.73.27,6.12.33,7.32.33h1.74c.81-1.26,1.14-2.76,1.17-2.88s.03-.24.15-.24c.06,0,.09.03.18.06.66.21,2.37.84,2.37,1.41,0,.27-.3.48-.96.51-.33,0-.54.42-.69.63l-.27.51h7.17c.3,0,.63-.09.87-.39.15-.18.96-1.29,1.5-1.29.78,0,2.43,1.56,2.43,2.34,0,.3-.21.48-.75.48h-2.73c1.77,1.17,1.8,1.71,1.8,1.83,0,.24-.15.42-.45.42-.18,0-.39-.06-.63-.18-.15-.06-.24-.09-.3-.09-.09,0-.18.03-.3.09-.54.3-2.07,1.35-2.85,1.77,2.16,1.56,5.13,2.94,9.21,3.42.18.03.24.21.24.39,0,.3-.15.6-.33.63-.33,0-1.62.24-2.58.93-.12.09-.24.15-.39.15-.27,0-3.57-1.02-6.9-3.99,0,.12-.03.27-.03.48v.45c0,1.23.15,3.9.18,4.56.03.48-.39.84-.93.84-.36,0-.69-.21-.69-.66v-.36ZM40.73,58.19c-.09,0-.21,0-.33-.03-.09-.03-.15-.03-.21-.03-.18,0-.33.06-.54.18-2.55,1.41-7.56,3.39-9.03,3.39-.33,0-.57-.39-.57-.69,0-.21.09-.39.27-.42,1.17-.33,7.5-2.43,9-4.56.09-.12.12-.15.18-.15.36,0,1.71,1.5,1.71,1.98,0,.24-.18.33-.48.33ZM36.71,47.51c-.51-.69-1.77-1.47-2.52-1.86-.09-.03-.12-.12-.12-.18,0-.27.36-.69.63-.69.06,0,3.72.9,3.72,2.49,0,.48-.33.9-.75.9-.27,0-.63-.18-.96-.66ZM40.91,48.8c-.39.39-.42.42-.42.57v1.2h7.59c0-.54,0-1.02-.03-1.47,0-.21-.15-.3-.33-.3h-6.81ZM40.52,51.65c0,.66,0,1.29.03,1.95h7.5c0-.66.03-1.32.03-1.95h-7.56ZM43.7,44c-.72,1.08-1.68,2.34-2.85,3.63l.09.06h6.63c.09,0,.15,0,.18-.03-1.26-1.38-2.16-2.73-2.76-3.66h-1.29ZM46.31,44c.69.93,1.68,2.07,3.03,3.18,2.34-2.04,2.91-2.52,3.18-3.18h-6.21ZM53.87,60.53c-1.41-1.41-3.69-2.34-6.24-3.15-.15-.06-.24-.18-.24-.36,0-.3.27-.69.57-.69.27,0,7.89,1.35,7.89,3.96,0,.51-.3.9-.75.9-.33,0-.75-.18-1.23-.66Z"/><path class="cls-1" d="M68,39.57l-1.38,1.83c1.44.24,2.61.72,2.61,1.62,0,.42-.3.78-.69.78-.21,0-.45-.09-.66-.3-.6-.51-1.35-.9-2.07-1.11-.63.75-1.26,1.47-1.95,2.16,2.43.48,2.97,1.14,2.97,1.8,0,.45-.33.78-.72.78-.21,0-.45-.09-.69-.33-.69-.69-1.62-1.17-2.46-1.38-.84.81-1.68,1.5-2.01,1.5-.39,0-.81-.33-.81-.63,0-.09.03-.15.12-.21,3.75-2.94,7.95-9.51,8.1-10.77.03-.12,0-.27.18-.27.21,0,2.58.9,2.58,1.41,0,.21-.27.39-.99.45-.27.03-.42,0-.63.39-.18.3-.42.69-.69,1.08h2.97c.33,0,.48-.15.69-.39.12-.15.24-.27.39-.27.51,0,1.8,1.17,1.8,1.56,0,.27-.21.51-.57.63-.39.12-.51.21-.63.48-1.98,4.02-6.93,11.28-13.95,14.55-.03.03-.09.03-.15.03-.33,0-.75-.45-.75-.78,0-.12.03-.24.18-.3,8.34-4.05,12.99-13.83,12.99-14.22,0-.06-.06-.09-.18-.09h-3.6ZM69.74,56.19c-.24,0-.42.15-.6.33-2.76,2.82-6.24,4.44-6.78,4.44-.42,0-.78-.39-.78-.72,0-.12.06-.24.21-.3,2.43-1.11,5.88-3.84,6.57-5.61.06-.15.15-.21.27-.21.15,0,2.16,1.11,2.16,1.74,0,.21-.18.36-.63.36-.09,0-.21,0-.36-.03h-.06ZM75.71,52.56c.06.03.12.09.12.18,0,.09-.12.24-.51.36-.18.06-.24.3-.24.54-.03.24-.03.72-.03,1.26,0,1.38.06,3.33.09,4.32v.12c0,.96-.6,2.1-2.52,2.34-.18,0-.27-.06-.42-.24-.39-.51-1.95-.63-2.64-.75-.24-.03-.33-.27-.33-.51,0-.3.15-.57.42-.57h.03c1.11.15,1.92.24,2.52.24,1.02,0,1.32-.3,1.35-1.17,0-5.22,0-5.34-.09-6.12h-1.56c-1.53,0-3.24.15-4.89.39-.48.06-1.56-1.14-1.56-1.71,0-.09.06-.15.15-.15h.03c2.43.24,4.68.39,6.42.39h6.09c.48,0,.69-.3.9-.57.18-.27.93-1.23,1.41-1.23.81,0,2.37,1.65,2.37,2.43,0,.27-.18.45-.69.45h-6.42ZM74.15,48.45c-1.62,0-2.37.03-3.3.15-.51.03-1.62-1.14-1.62-1.53,0-.09.06-.12.15-.12h.03c1.05.15,2.52.36,4.38.36h.6c.48,0,.63-.12.87-.36.21-.27.66-.96.87-1.11.18-.12.33-.21.51-.21.75,0,2.16,1.56,2.16,2.34,0,.27-.18.48-.72.48h-3.93ZM80.72,39.48s-1.74.15-2.37.24c-.51.09-1.5-1.32-1.5-1.68,0-.06.03-.09.09-.09h.03c1.23.21,2.04.36,3.42.36h1.32c.33,0,.42-.18.6-.39.12-.15.24-.24.45-.24.45,0,2.31,1.2,2.31,1.92,0,.27-.18.48-.69.63-.3.09-.75.12-.96.36-.69.9-2.82,3.18-3.69,3.9,2.52,3.03,5.88,5.49,9.93,6.63.09.03.15.12.15.24,0,.24-.21.63-.36.6-.33,0-1.86.18-2.61.51-.12.06-.27.09-.45.09-.96,0-9.39-5.97-12.06-15.33,0-.03-.03-.06-.03-.09,0-.27.33-.45.63-.45.21,0,.39.09.45.27.81,2.25,2.01,4.53,3.57,6.6.09-.12,2.67-3.39,2.67-3.93,0-.09-.06-.15-.24-.15h-.66ZM82.79,59.31c-1.32-1.95-3.39-3.27-4.71-4.02-.12-.06-.15-.15-.15-.27,0-.3.39-.69.75-.69.15,0,6.27,2.52,6.27,4.92,0,.57-.36.96-.84.96-.39,0-.87-.24-1.32-.9Z"/><path class="cls-1" d="M97.01,58.89c-1.02,0-3.12-2.73-3.12-6.63,0-2.67.87-5.43,1.77-7.98.18-.54.36-.99.36-1.47,0-1.05-.93-2.1-1.47-2.31-.36-.15-.51-.39-.51-.6,0-.33.33-.66.78-.66.96,0,3.03,2.43,3.03,3.66,0,.75-.51,1.32-.93,2.16-.9,1.83-1.89,4.56-1.89,6.72,0,.93.39,2.25.66,2.25.06,0,.12-.12.18-.3.36-1.23,1.56-4.41,2.82-7.02.15-.3.39-.42.6-.42.27,0,.51.18.51.48,0,.12-.03.24-.12.39-1.23,1.86-2.55,6.9-2.55,8.76,0,.54.09,1.05.36,1.68.12.27.18.51.18.69,0,.06,0,.6-.66.6ZM111.8,44.76c-2.79,0-5.88,2.25-6.06,2.37-.12.09-.27.12-.39.12-.3,0-.57-.24-.57-.51,0-.15.09-.33.3-.45.57-.36,1.68-.96,2.55-1.56.12-.09.3-.21.3-.3,0-.03-.06-.06-.21-.06h-.33c-1.56,0-3.69.48-5.19.48-.3,0-1.62-.03-1.62-.84,0-.33.24-.6.66-.6.12,0,.24,0,.39.06.27.09.63.15,1.02.15,1.59,0,3.99-.63,6.81-.63h.15c.42,0,3.6.06,3.6,1.17,0,.33-.36.6-.99.6h-.42ZM102.44,52.8c0,1.53,2.61,3.42,7.8,3.42.39,0,.75,0,1.11-.03.87-.06.96-.27,1.71-.54.51-.18.96-.24,1.35-.24.99,0,1.5.48,1.5,1.02,0,1.41-4.38,1.47-5.22,1.47-1.83,0-3.57-.27-5.01-.75-4.95-1.68-5.28-5.37-3.9-5.37.33,0,.66.3.66.96v.06Z"/><path class="cls-1" d="M127.79,57.06c0-.48.66-.99,1.65-.99.18,0,.39.03.6.06.45.09.93.12,1.44.12,4.71,0,11.85-3.21,11.85-8.01,0-2.79-2.7-5.04-6.36-5.04-4.05,0-8.01,2.76-10.14,5.88-.45.66-1.08,1.17-1.92,1.17-1.05,0-3.72-1.32-3.72-3.51,0-.36.09-.69.36-.69.18,0,.39.12.72.45.57.57,1.26,1.41,2.04,1.41.24,0,.51-.09.81-.33,1.26-.99,2.49-2.07,3.84-2.94,2.91-1.86,5.73-2.61,8.16-2.61,4.71,0,8.07,2.85,8.07,6.3,0,3.12-2.82,6.63-8.67,8.4-1.38.39-8.73,1.98-8.73.33Z"/><path class="cls-1" d="M154.61,48.73c0,6.24,3.33,7.23,3.54,7.23.24,0,.45-.24.69-.72.78-1.53,1.62-3.39,2.76-5.43.15-.27.36-.36.6-.36.3,0,.63.24.63.57,0,.09-.06.21-.12.33-1.23,1.86-2.37,5.34-2.37,5.97,0,.36.21.51.39.93.09.18.12.36.12.48,0,.45-.39.75-1.11.75-3.15,0-6.21-3.66-6.63-8.13-.12-1.23-.12-2.4-.12-3.45,0-.36.03-.72.03-1.05,0-.9-.15-1.71-1.05-2.34-.3-.21-.42-.45-.42-.66,0-.33.33-.6.69-.6.66,0,2.49,1.74,2.49,3.54,0,.33-.06.69-.06,1.2-.03.48-.06,1.02-.06,1.74ZM174.26,51.19c0,.78-.24,1.83-.99,1.83-.21,0-.48-.12-.81-.33-.18-.12-.42-.15-.75-.15-.18,0-.39,0-.6.03-.57.09-1.2.24-1.74.33-.06,0-.12.03-.18.03-.36,0-.54-.21-.54-.45,0-.18.15-.39.39-.48.42-.12,1.74-.42,2.64-.69.54-.18.72-.45.72-.78,0-1.14-.66-2.73-2.61-4.38-.39-.36-.72-.48-1.2-.69-.42-.18-.6-.45-.6-.66,0-.3.3-.57.72-.57.21,0,.48.06.75.24,1.35.9,4.8,3.18,4.8,6.66v.06Z"/><path class="cls-1" d="M197.75,39.59c2.01.18,3.06.33,3.06,1.23,0,.42-.36.84-1.08.87-.84,0-1.65,0-2.46.06-4.89.42-8.43,4.71-8.43,8.61,0,4.95,5.43,6.42,6.93,6.42.39,0,.72-.12,1.2-.15,2.34-.24,2.94.93,2.94,1.35,0,.57-.57,1.05-1.8,1.05-3.33,0-10.41-2.01-10.41-8.34,0-2.85,1.53-5.76,3.63-7.53-1.95.81-3.84,1.83-5.19,2.64-.9.54-1.53.9-2.37.9-1.35,0-4.11-1.2-4.11-2.94,0-.27.12-.42.33-.42.15,0,.39.06.66.24,1.5.9,2.67,1.26,3.6,1.26.48,0,.87-.09,1.23-.27,1.56-.78,8.31-3.6,9.69-3.87.93-.18,1.44-1.11,2.46-1.11h.12Z"/></g></g><g id="About" class="cls-2"><g class="cls-2"><path class="cls-1" d="M24.03,31.46h-12.6s-2.03,5.89-2.03,5.89H0S12.92,3.42,12.92,3.42h9.63s12.91,33.94,12.91,33.94h-9.41s-2.02-5.9-2.02-5.9ZM21.69,24.75l-3.96-11.3-3.96,11.3h7.92Z"/><path class="cls-1" d="M47.22,0v16.56c1.92-2.01,4.32-3.01,7.2-3.01,1.71,0,3.28.32,4.7.97,1.42.65,2.64,1.52,3.64,2.61,1.01,1.1,1.79,2.38,2.36,3.87.57,1.48.85,3.07.85,4.75s-.29,3.31-.88,4.81c-.59,1.5-1.4,2.81-2.46,3.92s-2.29,1.99-3.71,2.63c-1.43.65-2.96.97-4.61.97-3,0-5.37-1.1-7.11-3.29v2.56h-8.15V0s8.15,0,8.15,0ZM57.47,25.88c0-.72-.13-1.4-.4-2.05s-.65-1.21-1.12-1.69c-.48-.48-1.04-.86-1.67-1.15-.63-.29-1.32-.43-2.07-.43s-1.39.13-2.03.4c-.63.27-1.18.65-1.64,1.12-.46.48-.84,1.04-1.12,1.69-.29.65-.43,1.33-.43,2.05s.13,1.4.4,2.03c.27.63.64,1.18,1.12,1.64.48.47,1.04.84,1.69,1.12.65.29,1.33.43,2.05.43s1.39-.13,2.03-.4c.63-.27,1.18-.65,1.64-1.13.46-.48.84-1.04,1.12-1.67.29-.63.43-1.29.43-1.98Z"/><path class="cls-1" d="M69.71,25.61c0-1.71.34-3.31,1.04-4.79.69-1.48,1.65-2.78,2.88-3.87s2.69-1.96,4.39-2.59,3.55-.95,5.56-.94c1.98,0,3.82.31,5.51.92s3.17,1.47,4.41,2.57c1.24,1.1,2.21,2.4,2.9,3.92.69,1.52,1.04,3.19,1.04,5.02s-.35,3.5-1.06,5.02c-.71,1.52-1.67,2.82-2.9,3.92-1.23,1.1-2.71,1.94-4.43,2.54-1.73.6-3.59.9-5.6.9s-3.81-.3-5.49-.9c-1.68-.6-3.13-1.46-4.34-2.57s-2.17-2.44-2.86-3.98c-.69-1.54-1.04-3.26-1.04-5.15ZM78.31,25.71c0,.78.14,1.49.43,2.14.28.65.66,1.21,1.12,1.69.46.48,1.02.86,1.66,1.13.64.27,1.33.4,2.05.4s1.4-.13,2.05-.4,1.2-.64,1.67-1.12c.46-.48.84-1.04,1.12-1.69.29-.64.43-1.34.43-2.09s-.14-1.4-.43-2.05c-.29-.64-.66-1.21-1.12-1.69-.46-.48-1.02-.86-1.66-1.12-.65-.27-1.33-.41-2.05-.41s-1.4.13-2.05.4c-.65.27-1.2.65-1.67,1.13s-.84,1.04-1.12,1.67c-.29.63-.43,1.3-.43,2.03Z"/><path class="cls-1" d="M110.26,14.28v13.01c0,2.85,1.38,4.28,4.14,4.28,2.76,0,4.14-1.42,4.14-4.27v-13.01s8.15,0,8.15,0v14.58c0,3.12-1.03,5.46-3.09,7.02s-5.12,2.34-9.2,2.34-7.15-.78-9.2-2.34c-2.06-1.56-3.08-3.9-3.08-7.02v-14.58s8.15,0,8.15,0Z"/><path class="cls-1" d="M141.32,21.08v16.29s-8.15,0-8.15,0v-16.29s-2.7,0-2.7,0v-6.8h2.7v-6.93h8.15v6.93s4.63,0,4.63,0v6.8h-4.63Z"/></g></g></g></svg>