<?xml version="1.0" encoding="UTF-8"?><svg id="Layer_2" xmlns="http://www.w3.org/2000/svg" viewBox="0 0 299.91 54.23"><defs><style>.cls-1{fill:#edd312;}.cls-2{isolation:isolate;}</style></defs><g id="Layer_1-2"><g id="_クラウドファンディング" class="cls-2"><g class="cls-2"><path class="cls-1" d="M76.28,38.9c-.88.05-2.2.18-3.15.22-.4,0-.78-.1-1.08-.3-2.65,4.2-6.68,8.9-8.08,8.9-.35,0-.55-.22-.55-.53,0-.32.25-.75.85-1.03,2.3-1.05,6.8-7.95,6.8-8.93,0-.3-.2-.53-.65-.55-.43-.05-.57-.25-.57-.45,0-.38.47-.55.9-.55.95,0,2.2.85,2.2,1.43,0,.32-.22.62-.4.92.15.05.3.08.48.08.72,0,2.33-.25,3.12-.38.48-.07.62-.6,1.13-.6.22,0,2.05.68,2.05,1.23,0,.17-.12.33-.28.45-.28.2-.9.38-1.03.68-3.65,7.88-8.61,11.35-14.28,13.45-.5.18-.93.25-1.25.25-.68,0-1-.3-1-.63,0-.4.47-.85,1.43-.9,4.28-.25,10.8-5.8,13.53-12.5.03-.08.05-.12.05-.18,0-.07-.08-.1-.12-.1h-.1Z"/><path class="cls-1" d="M98.21,39.33c.07.02,1.85.53,1.85,1.1,0,.25-.22.53-.62.73-.32.15-.68.52-.8.8-1.33,2.85-3,5.18-4.88,7.03-2.65,2.62-6.83,4.73-7.83,4.72-.48,0-.68-.22-.68-.5,0-.4.4-.9,1.15-1.03,1.8-.3,4.33-1.85,6.38-4.05,3.1-3.25,4.43-6.68,4.43-6.98,0-.07-.05-.07-.2-.07-2.45.2-5.53.65-7.53.95-.95.12-1.73.38-2.4.38-1.33,0-2.47-1.38-2.47-2.03,0-.07.05-.67.45-.67.1,0,.23.03.38.13,1.35.88,1.5,1.15,2.53,1.15.25,0,.55-.03.93-.05,2.2-.15,5.48-.62,7.93-.87.55-.08.67-.73,1.28-.73h.12ZM97.16,37.45c-.43-.02-1.18-.05-1.85-.05-1.5,0-3.7.22-5.58.53-.45.07-.83.32-1.25.32-.73,0-2.08-1.18-2.08-1.83,0-.38.18-.62.4-.62.12,0,.23.03.38.12.72.45.97.83,1.9.85h.2c1.65,0,3.25-.28,5.18-.53.55-.1.93-.55,1.45-.55.08,0,2.3.4,2.3,1.2,0,.3-.35.55-.95.55h-.1Z"/><path class="cls-1" d="M105.73,39.63c-.3-.03-.5-.25-.5-.5,0-.45.7-.77,1.38-.77,1.05,0,1.7.78,2,1.68.5.12.93.15,1.43.15.4,0,1.18-.03,2.78-.15.02-.55.05-1.07.05-1.6,0-1.9-.07-2.33-1.43-2.48-.25-.03-.35-.2-.35-.4,0-.25.15-.75.92-.75.35,0,2.1.62,2.13.62.4.15.53.4.52.68,0,.43-.28.93-.32,1.4-.05.62-.15,1.58-.18,2.4,1.28-.1,2.55-.22,3.8-.3.58-.05.6-.55,1.15-.55.33,0,2.03.8,2.03,1.38,0,.4-.62.62-.93.92-.08.08-.25.3-.28.38-2.2,8.25-10.16,11.88-11.38,11.88-.5,0-.72-.25-.72-.55,0-.4.4-.88,1.17-1,1.88-.28,4.03-1.92,5.8-3.93,3.12-3.47,3.7-7.2,3.7-7.35,0-.03-.03-.05-.12-.05-.45,0-5.75.38-7.68.6-.38.05-.65.05-.9.05-.35,0-.62-.02-.88-.1.4,1.88.9,5.3.9,6.15,0,.43-.2.85-.65.85-.72,0-1-1.5-1-1.78,0-.12.03-.22.03-.35.03-.2.03-.43.03-.65,0-.55-.7-4.35-.85-4.78-.32-.75-.82-1.05-1.65-1.1Z"/><path class="cls-1" d="M129.88,52.19c0,1.5-.43,1.95-.75,1.95-.62,0-1.05-1.33-1.05-2.28,0-.22.02-.4.05-.55.08-.3.23-.55.25-.88.1-.8.2-5,.2-8.65,0-1.55-.03-3-.08-4.08-.02-.85-.42-1.38-2-1.83-.25-.08-.32-.18-.32-.33,0-.27.53-.67,1.18-.67.42,0,.5.05,2.47,1.15.28.15.38.45.38.8,0,.53-.22,1.18-.28,1.58-.1.78-.15,2.03-.17,3.45.78.1,6.2.98,6.2,3,0,.43-.25.73-.65.73-.28,0-.62-.12-1.03-.48-1.25-1.08-2.63-1.78-4.53-2.25v1.28c0,2.78.05,5.83.12,7.85v.2ZM135.76,40.31c-.8-1.03-2.33-1.93-2.88-2.2-.17-.08-.22-.2-.22-.35,0-.23.2-.45.5-.45.6,0,3.23,1.25,3.73,2,.15.22.22.47.22.68,0,.45-.28.8-.62.8-.22,0-.47-.15-.72-.47ZM137.81,38.54c-.83-1.03-2.38-1.88-2.95-2.1-.18-.07-.25-.22-.25-.35,0-.25.2-.47.53-.47.25,0,3.2,1.08,3.78,1.88.18.23.22.48.22.7,0,.42-.25.78-.62.78-.2,0-.45-.12-.7-.43Z"/><path class="cls-1" d="M156.46,38.81c0-.1-.07-.1-.2-.1-2.48.15-5.38.57-7.4.87-.92.12-1.7.38-2.38.38-1.25,0-2.55-1.48-2.55-2.3,0-.15.07-.75.45-.75.1,0,.23.05.38.15,1.4,1.03,1.53,1.33,2.65,1.33.25,0,.53,0,.85-.03,2.23-.12,5.3-.55,7.78-.8.55-.05.7-.8,1.3-.8.38,0,2.03.7,2.03,1.28,0,.27-.22.6-.62.82-.3.18-.67.58-.8.88-1.33,3.18-3.03,5.78-4.9,7.83-2.4,2.58-6.73,5.18-7.9,5.17-.48,0-.7-.25-.7-.58,0-.45.43-1.03,1.18-1.15,1.83-.3,4.35-2,6.43-4.43,3.23-3.85,4.43-7.65,4.43-7.78Z"/><path class="cls-1" d="M170.56,46.04l-.32.55c-2.03,5.1-5.93,7.43-6.78,7.43-.27,0-.57-.12-.57-.53,0-.38.35-.8.95-.92,1.97-.45,5.28-5.35,5.28-7.1,0-.35-.18-.48-.6-.55-.33-.05-.45-.18-.45-.33,0-.3.43-.62.85-.62.35,0,.53.1,1.6.78.1.05.18.1.22.18,1.05-.85,1.75-1.6,2.35-2.33v-.03s-.03.03-.05.03c-1.93.07-5.1.6-6.5.85-.12.03-.25.03-.4.03-1.2,0-2.55-.85-2.55-2.03,0-.3.2-.45.45-.45.1,0,.2.03.3.07.57.35,1.55,1.15,2.22,1.15.93-.02,5.38-.6,6.78-.67.23-.02.38-.42.83-.42.32,0,1.6.3,1.6.85,0,.25-.2.5-.45.65-.35.2-.72.38-1.03.65-1.1.95-2.18,1.98-3.47,2.65l-.25.12Z"/><path class="cls-1" d="M186.62,42.4c-1.5-1.4-3.75-2.1-4.18-2.15-.5-.05-.72-.35-.72-.62,0-.3.25-.57.67-.57.75,0,4.58,1,5.38,1.85.3.32.45.7.45,1.03,0,.5-.3.9-.75.9-.22,0-.53-.13-.85-.43ZM184.26,51.5c-.73,0-1.93-.23-1.93-2.13,0-.58.28-.8.57-.8.25,0,.53.18.65.48s.3.68,1.03.68c3.6,0,12.88-7.73,13.76-9.8.17-.43.57-.62.92-.62.3,0,.55.15.55.5,0,.28-.17.65-.6,1.18-2.83,3.4-10.88,10.53-14.96,10.53Z"/><path class="cls-1" d="M221.65,42.18c-.53-.05-1.68-.2-2.68-.2-1.35,0-3.58.17-3.95.2.6.15.95.53.95.8,0,.42-.45.92-.63,1.42-2.18,6.08-8.93,9.43-10.18,9.43-.47,0-.7-.28-.7-.58,0-.38.35-.83.97-.9,3.63-.42,8.5-6.38,8.5-9.03,0-.3-.12-.5-.62-.55-.22-.05-.32-.17-.32-.3,0-.05,0-.08.03-.13-1.48.15-2.9.35-4.05.55-.45.07-.95.22-1.4.22-.95,0-2.85-1.35-2.85-2.38,0-.03,0-.62.35-.62.15,0,.33.08.53.22.88.58,1.65,1.38,2.78,1.38h.05c1.47-.03,5.95-.57,9.35-.75.32-.02.72-.1.97-.22.43-.17.75-.47,1.2-.47.5,0,2.83.48,2.83,1.3,0,.33-.33.6-.95.6h-.17ZM219.27,38.12c-.57-.03-1.6-.1-2.38-.1-1.38,0-3.78.27-6.35.67-.45.05-.85.28-1.3.28-.68,0-2.2-1.18-2.2-1.93,0-.02,0-.62.45-.62.1,0,.22.05.38.15.75.47,1.03.9,2,.93h.4c1.8,0,4.35-.45,6.3-.65.6-.08.98-.5,1.53-.5.35,0,2.2.38,2.2,1.15,0,.35-.32.62-.9.62h-.12ZM222.95,37.45c-.8-1.05-2.33-1.95-2.88-2.23-.17-.08-.22-.2-.22-.35,0-.22.18-.45.48-.45.4,0,3.22,1.2,3.75,2,.15.23.22.48.22.67,0,.45-.28.8-.62.8-.22,0-.47-.12-.72-.45ZM225,35.65c-.85-1-2.4-1.88-2.95-2.1-.18-.08-.25-.23-.25-.38,0-.23.2-.45.5-.45.47,0,3.25,1.15,3.78,1.88.17.25.25.5.25.72,0,.43-.25.75-.63.75-.2,0-.45-.13-.7-.42Z"/><path class="cls-1" d="M231.29,52.56c0,1.18-.25,1.68-.72,1.68-.55,0-.83-.55-.83-1.33,0-.3.05-.62.12-.97.18-.95.18-1.3.28-4.95,0-.3-.03-.65-.08-.9-2.43,3-5.8,5.28-6.63,5.28-.35,0-.5-.23-.5-.5,0-.35.25-.78.72-.9,2.22-.58,7.13-6.2,7.13-7.7,0-.28-.2-.4-.65-.48-.28-.05-.38-.17-.38-.32,0-.13.15-.68.83-.68s2.2.73,2.2,1.3c0,.5-.68,1.08-.95,1.5-.3.53-.67,1.08-1.07,1.62.32.25.7.7.7,1.13,0,.1-.02.2-.07.3-.1.23-.15,1.53-.15,2.85s.05,2.6.05,2.88v.2Z"/><path class="cls-1" d="M244.62,42.4c-1.5-1.4-3.75-2.1-4.18-2.15-.5-.05-.72-.35-.72-.62,0-.3.25-.58.67-.58.75,0,4.58,1,5.38,1.85.3.33.45.7.45,1.03,0,.5-.3.9-.75.9-.22,0-.53-.12-.85-.42ZM242.27,51.51c-.73,0-1.93-.22-1.93-2.12,0-.58.28-.8.57-.8.25,0,.53.17.65.47.12.3.3.68,1.03.68,3.6,0,12.88-7.73,13.76-9.8.17-.43.57-.62.92-.62.3,0,.55.15.55.5,0,.27-.17.65-.6,1.17-2.83,3.4-10.88,10.53-14.96,10.53Z"/><path class="cls-1" d="M261.17,53.04c-.5.2-.92.27-1.28.27-.65,0-.97-.3-.97-.63,0-.4.45-.85,1.4-.9,4.3-.27,10.8-5.8,13.53-12.5.03-.07.05-.12.05-.17,0-.1-.07-.12-.22-.12-1.8.15-3,.22-3.25.22-.38,0-.68-.1-.95-.28-3.4,5.33-6.88,8.88-8.08,8.88-.38,0-.57-.23-.57-.52,0-.33.28-.75.85-1.03,2.08-.9,6.83-7.78,6.83-8.95,0-.28-.2-.5-.65-.53-.42-.03-.57-.22-.57-.42,0-.05.05-.55.9-.55.55,0,2.18.65,2.18,1.45,0,.3-.2.6-.38.88.15.07.3.1.45.1.73,0,2.33-.25,3.13-.4.47-.08.62-.58,1.12-.58.32,0,2.05.65,2.05,1.2,0,.17-.1.32-.28.45-.25.23-.88.4-1.03.68-3.65,7.88-8.61,11.38-14.26,13.45ZM278.26,37.91c-.8-1.03-2.3-1.95-2.88-2.2-.18-.07-.22-.2-.22-.35,0-.22.2-.47.5-.47.4,0,3.2,1.23,3.72,2.03.15.23.23.48.23.68,0,.45-.28.78-.63.78-.22,0-.47-.12-.72-.45ZM280.31,36.11c-.82-1-2.38-1.85-2.95-2.1-.18-.08-.25-.2-.25-.35,0-.22.2-.45.52-.45.08,0,4,1,4,2.55,0,.42-.25.77-.6.77-.22,0-.47-.12-.72-.42Z"/></g></g><g id="Crowdfunding" class="cls-2"><g class="cls-2"><path class="cls-1" d="M23.08,13.54c-1.81-2.21-4.05-3.32-6.72-3.32-1.17,0-2.26.21-3.26.64-1,.43-1.86,1.01-2.58,1.74s-1.29,1.61-1.7,2.62-.62,2.11-.62,3.28.21,2.31.62,3.32c.41,1.01.98,1.89,1.72,2.64.73.75,1.59,1.33,2.58,1.76.99.43,2.05.64,3.2.64,2.51,0,4.76-1.07,6.76-3.2v9.28l-.8.28c-1.2.43-2.32.74-3.36.94-1.04.2-2.07.3-3.08.3-2.08,0-4.08-.39-5.98-1.18s-3.59-1.89-5.04-3.32c-1.45-1.43-2.62-3.12-3.5-5.08s-1.32-4.1-1.32-6.42c0-2.32.44-4.45,1.3-6.38.87-1.93,2.03-3.6,3.48-5s3.14-2.49,5.06-3.28c1.92-.79,3.93-1.18,6.04-1.18,1.2,0,2.38.13,3.54.38,1.16.25,2.38.65,3.66,1.18v9.36Z"/><path class="cls-1" d="M27.37,13.1h7.24v3.36c.77-1.23,1.72-2.17,2.84-2.82,1.12-.65,2.43-.98,3.92-.98h.62c.23,0,.49.03.78.08v6.92c-.96-.48-2-.72-3.12-.72-1.68,0-2.94.5-3.78,1.5s-1.26,2.46-1.26,4.38v8.8s-7.24,0-7.24,0V13.1Z"/><path class="cls-1" d="M45.37,23.19c0-1.52.31-2.94.92-4.26.61-1.32,1.47-2.47,2.56-3.44,1.09-.97,2.39-1.74,3.9-2.3,1.51-.56,3.15-.84,4.94-.84s3.39.27,4.9.82,2.81,1.31,3.92,2.28c1.11.97,1.97,2.13,2.58,3.48s.92,2.83.92,4.46-.31,3.12-.94,4.46c-.63,1.35-1.49,2.51-2.58,3.48-1.09.97-2.41,1.73-3.94,2.26-1.53.53-3.19.8-4.98.8s-3.39-.27-4.88-.8-2.78-1.29-3.86-2.28c-1.08-.99-1.93-2.17-2.54-3.54-.62-1.37-.92-2.9-.92-4.58ZM53.01,23.27c0,.69.12,1.33.38,1.9s.59,1.07,1,1.5.91.76,1.48,1,1.18.36,1.82.36c.64,0,1.25-.12,1.82-.36s1.07-.57,1.48-1c.41-.43.75-.93,1-1.5.25-.57.38-1.19.38-1.86s-.13-1.25-.38-1.82c-.25-.57-.59-1.07-1-1.5-.41-.43-.91-.76-1.48-1-.57-.24-1.18-.36-1.82-.36s-1.25.12-1.82.36c-.57.24-1.07.57-1.48,1-.41.43-.75.92-1,1.48-.25.56-.38,1.16-.38,1.8Z"/><path class="cls-1" d="M78.73,13.11l4.92,10.8,5.12-10.8h4.56l5.12,11.12,5.16-11.12h8.04s-10.72,20.52-10.72,20.52h-4.84l-5.12-11.24-4.88,11.24h-4.92l-10.52-20.53h8.08Z"/><path class="cls-1" d="M128.98.44h7.28s0,33.21,0,33.21h-7.28v-2.28c-1.55,1.95-3.64,2.92-6.28,2.92-1.49,0-2.87-.28-4.12-.84s-2.35-1.33-3.28-2.32c-.93-.99-1.66-2.15-2.18-3.48s-.78-2.77-.78-4.32c0-1.47.25-2.86.74-4.18.49-1.32,1.19-2.47,2.1-3.46.91-.99,1.99-1.77,3.26-2.34,1.27-.57,2.66-.86,4.18-.86,2.56,0,4.68.89,6.36,2.68V.44ZM119.86,23.32c0,.67.12,1.29.36,1.86.24.57.57,1.07.98,1.5.41.43.91.76,1.48,1s1.19.36,1.86.36c.64,0,1.25-.12,1.82-.36.57-.24,1.07-.57,1.48-1,.41-.43.75-.92,1-1.48.25-.56.38-1.16.38-1.8,0-.64-.12-1.25-.38-1.82-.25-.57-.59-1.07-1-1.5-.41-.43-.91-.76-1.48-1-.57-.24-1.18-.36-1.82-.36s-1.25.12-1.82.36c-.57.24-1.07.57-1.48,1s-.75.91-1,1.46-.38,1.14-.38,1.78Z"/><path class="cls-1" d="M149.02,19.16v14.48s-7.24,0-7.24,0v-14.48s-2.6,0-2.6,0v-6.04h2.6v-3.08c0-1.71.16-3.07.48-4.08.27-.85.69-1.65,1.28-2.38.59-.73,1.27-1.37,2.06-1.9.79-.53,1.63-.95,2.54-1.24.91-.29,1.8-.44,2.68-.44.61,0,1.18.07,1.7.2.52.13,1.05.32,1.58.56v6.32c-.48-.24-.93-.42-1.34-.54-.41-.12-.85-.18-1.3-.18-.29,0-.59.05-.9.14s-.59.29-.86.58c-.27.29-.45.71-.54,1.26s-.14,1.29-.14,2.22v2.56h5.08s0,6.04,0,6.04h-5.08Z"/><path class="cls-1" d="M164.06,13.12v11.56c0,2.53,1.22,3.8,3.68,3.8,2.46,0,3.68-1.27,3.68-3.8v-11.56s7.24,0,7.24,0v12.96c0,2.78-.92,4.86-2.74,6.24-1.83,1.39-4.55,2.08-8.18,2.08-3.63,0-6.36-.7-8.18-2.08s-2.74-3.47-2.74-6.24v-12.96s7.24,0,7.24,0Z"/><path class="cls-1" d="M183.58,13.13h7.24v2.6c.99-1.2,1.99-2.01,3-2.42,1.01-.41,2.2-.62,3.56-.62,1.44,0,2.67.23,3.7.7s1.9,1.13,2.62,1.98c.59.69.99,1.47,1.2,2.32s.32,1.83.32,2.92v13.04s-7.24,0-7.24,0v-10.36c0-1.01-.07-1.83-.22-2.46-.15-.63-.41-1.13-.78-1.5-.32-.32-.68-.55-1.08-.68s-.83-.2-1.28-.2c-1.23,0-2.17.37-2.82,1.1-.65.73-.98,1.78-.98,3.14v10.96s-7.24,0-7.24,0V13.13Z"/><path class="cls-1" d="M225.99.45h7.28v33.21s-7.29,0-7.29,0v-2.28c-1.55,1.95-3.64,2.92-6.28,2.92-1.49,0-2.87-.28-4.12-.84s-2.35-1.33-3.28-2.32c-.93-.99-1.66-2.15-2.18-3.48-.52-1.33-.78-2.77-.78-4.32,0-1.47.25-2.86.74-4.18.49-1.32,1.19-2.47,2.1-3.46.91-.99,1.99-1.77,3.26-2.34,1.27-.57,2.66-.86,4.18-.86,2.56,0,4.68.89,6.36,2.68V.45ZM216.87,23.33c0,.67.12,1.29.36,1.86.24.57.57,1.07.98,1.5.41.43.91.76,1.48,1s1.19.36,1.86.36c.64,0,1.25-.12,1.82-.36.57-.24,1.07-.57,1.48-1,.41-.43.75-.92,1-1.48.25-.56.38-1.16.38-1.8,0-.64-.12-1.25-.38-1.82-.25-.57-.59-1.07-1-1.5-.41-.43-.91-.76-1.48-1-.57-.24-1.18-.36-1.82-.36s-1.25.12-1.82.36-1.07.57-1.48,1c-.41.43-.75.91-1,1.46-.25.55-.38,1.14-.38,1.78Z"/><path class="cls-1" d="M237.71,5.25c0-.56.11-1.09.32-1.58.21-.49.51-.93.88-1.3.37-.37.81-.67,1.3-.88.49-.21,1.02-.32,1.58-.32s1.09.11,1.58.32c.49.21.93.51,1.3.88.37.37.67.81.88,1.3.21.49.32,1.02.32,1.58s-.11,1.09-.32,1.58c-.21.49-.51.93-.88,1.3-.38.37-.81.67-1.3.88-.49.21-1.02.32-1.58.32s-1.09-.11-1.58-.32c-.49-.21-.93-.51-1.3-.88-.37-.37-.67-.81-.88-1.3-.21-.49-.32-1.02-.32-1.58ZM245.43,13.14v20.52s-7.24,0-7.24,0V13.14h7.24Z"/><path class="cls-1" d="M250.39,13.14h7.24v2.6c.99-1.2,1.99-2.01,3-2.42,1.01-.41,2.2-.62,3.56-.62,1.44,0,2.67.23,3.7.7,1.03.47,1.9,1.13,2.62,1.98.59.69.99,1.47,1.2,2.32.21.86.32,1.83.32,2.92v13.04s-7.24,0-7.24,0v-10.36c0-1.01-.07-1.83-.22-2.46-.15-.63-.41-1.13-.78-1.5-.32-.32-.68-.55-1.08-.68-.4-.13-.83-.2-1.28-.2-1.23,0-2.17.37-2.82,1.1-.65.73-.98,1.78-.98,3.14v10.96s-7.24,0-7.24,0V13.14Z"/><path class="cls-1" d="M299.91,13.14v19.12c0,1.15-.07,2.17-.2,3.08-.13.91-.32,1.71-.56,2.4-.32.88-.82,1.7-1.5,2.46s-1.5,1.42-2.46,1.98-2.05,1-3.26,1.32c-1.21.32-2.53.48-3.94.48-1.6,0-3.07-.2-4.4-.6-1.33-.4-2.5-.96-3.5-1.66-1-.71-1.82-1.54-2.46-2.48-.64-.95-1.07-1.98-1.28-3.1h8.16c.51,1.36,1.65,2.04,3.44,2.04,1.52,0,2.69-.43,3.5-1.28.81-.85,1.22-2.04,1.22-3.56v-1.96c-.53.51-1.05.93-1.54,1.26-.49.33-.99.61-1.5.82-.51.21-1.04.37-1.6.46-.56.09-1.17.14-1.84.14-1.47,0-2.81-.25-4.04-.76s-2.29-1.21-3.18-2.12c-.89-.91-1.59-1.99-2.08-3.26-.49-1.27-.74-2.67-.74-4.22s.27-3.03.8-4.38c.53-1.35,1.26-2.52,2.18-3.52.92-1,2.01-1.79,3.28-2.36,1.27-.57,2.65-.86,4.14-.86,2.43,0,4.47.91,6.12,2.72v-2.16h7.24ZM283.67,23.3c0,.67.12,1.29.36,1.86.24.57.57,1.07.98,1.5.41.43.91.76,1.48,1,.57.24,1.19.36,1.86.36s1.25-.12,1.82-.36c.57-.24,1.07-.57,1.48-1,.41-.43.75-.93,1-1.5.25-.57.38-1.18.38-1.82,0-.67-.13-1.28-.38-1.84-.25-.56-.59-1.05-1.02-1.48-.43-.43-.93-.76-1.5-1-.57-.24-1.17-.36-1.78-.36s-1.24.13-1.8.38c-.56.25-1.05.59-1.48,1-.43.41-.77.9-1.02,1.46-.25.56-.38,1.16-.38,1.8Z"/></g></g></g></svg>