<?xml version="1.0" encoding="UTF-8"?><svg id="Layer_2" xmlns="http://www.w3.org/2000/svg" viewBox="0 0 137.36 53.97"><defs><style>.cls-1{isolation:isolate;}.cls-2{fill:#c6c6c6;}</style></defs><g id="Layer_1-2"><g id="_ホーム" class="cls-1"><g class="cls-1"><path class="cls-2" d="M29.54,49.52c0-.52.4-1.2,1.32-1.8,4-2.68,4.68-5.04,4.84-5.56.16-.6.6-.88,1-.88.48,0,.92.36.92.92,0,.92-3.6,8.36-6.8,8.36-.76,0-1.28-.44-1.28-1.04ZM57.55,37.09c-.96-.12-3.36-.36-4.92-.36-.56,0-3.92.16-6.72.36v2.76c0,2.56.04,5.28.08,7.68,0,.84.12,1.72.12,2.56,0,.16-.08,3.88-1.48,3.88-.48,0-.88-.32-1.16-1.2-.24-.76-.92-2.24-3.92-5.36-.16-.16-.2-.32-.2-.48,0-.36.36-.76.76-.76.16,0,.32.08.48.2,1.08.96,2.64,2.32,2.76,2.36.12.08.2.12.28.12.4,0,.52-1.8.52-11.6-2.48.2-4.8.44-6.32.64-.88.12-1.8.48-2.76.48-1.8,0-4.08-2.16-4.08-3.2s.64-1.08.76-1.08c.16,0,.36.08.56.2,1.72,1.08,2.16,1.92,4.08,2h.2c1.08,0,4.32-.28,7.56-.56,0-1.8,0-3.52-.08-4.84-.04-1.2-.6-1.92-2.84-2.56-.32-.08-.44-.28-.44-.48,0-.28.16-.56.4-.72.36-.2.68-.28,1.04-.28.32,0,1,.04,3.8,1.72.44.24.56.52.56.88,0,.52-.28,1.24-.4,2.32-.12.92-.2,2.24-.24,3.8l6.08-.56c1-.08,2-.84,2.84-.84.08,0,4.28.84,4.28,2,0,.48-.48.92-1.36.92h-.24ZM51.42,42.81c-.56-.2-.76-.56-.76-.92,0-.48.44-.92,1.04-.92.68,0,8.36,4.08,8.36,7.4,0,.92-.56,1.48-1.24,1.48-.6,0-1.28-.44-1.8-1.48-1-1.96-2.52-3.68-4.16-4.84-.44-.36-1-.52-1.44-.72Z"/><path class="cls-2" d="M91.51,40.49c-1.64-.04-3.2-.04-4.76-.04-3.88,0-7.52.12-11.68.64-1.04.12-1.8.32-2.52.32-1.84,0-4.96-2.2-4.96-3.96,0-.44.16-1,.68-1,.2,0,.44.08.6.24,1.6,1.2,3.36,2.2,4.56,2.2h.28c2.56,0,12.64-.48,18.4-.64h2.16c1.72.12,2.48.56,2.48,1,0,1.24-3.2,1.24-4.12,1.24h-1.12Z"/><path class="cls-2" d="M124.07,47.78c-4.64,1.2-11.88,2.64-17.24,3.88-1.16.28-2.16.72-3.16.72-.8,0-1.56-.28-2.32-1.24-.92-1.16-1.28-1.36-1.28-2.44,0-1.24.92-1.32,1.12-1.32.32,0,.6.16.68.68.12,1.12,1.28,1.52,2.92,1.52,2.92-4.08,8.28-14.28,8.28-16.24,0-1-.72-1.56-2.36-1.8-.48-.08-.68-.32-.68-.64,0-.6.96-1.12,1.92-1.12.68,0,1.4.24,2.08.64,2.48,1.44,2.68,1.68,2.68,2.32,0,.84-.8,1.84-1.44,2.92-2.24,3.68-6,10.2-8.36,13.72,3.96-.52,12.56-2.12,16.24-3.04-.36-.56-.76-1.08-1.12-1.52-.96-1.2-2.08-2.24-2.88-2.68-.72-.4-1-.84-1-1.2,0-.44.36-.72.92-.72.36,0,.84.12,1.36.52,2,1.56,7.16,6.36,7.72,8.56.08.32.12.6.12.88,0,1.08-.6,1.76-1.28,1.76-.6,0-1.28-.52-1.72-1.8-.28-.68-.68-1.52-1.2-2.36Z"/></g></g><g id="Home" class="cls-1"><g class="cls-1"><path class="cls-2" d="M8.83,13.1h12.74s0-13.09,0-13.09h8.82s0,33.94,0,33.94h-8.82s0-14,0-14h-12.74s0,13.99,0,13.99H0V0s8.83,0,8.83,0v13.1Z"/><path class="cls-2" d="M35.83,22.19c0-1.71.34-3.31,1.04-4.79.69-1.48,1.65-2.77,2.88-3.87,1.23-1.09,2.69-1.96,4.39-2.59,1.7-.63,3.55-.94,5.56-.94,1.98,0,3.82.31,5.51.92,1.7.62,3.17,1.47,4.41,2.57,1.24,1.1,2.21,2.4,2.9,3.92.69,1.52,1.04,3.19,1.04,5.02s-.35,3.5-1.06,5.02c-.71,1.52-1.67,2.82-2.9,3.92-1.23,1.1-2.71,1.94-4.44,2.54-1.72.6-3.59.9-5.6.9-1.98,0-3.81-.3-5.49-.9-1.68-.6-3.13-1.46-4.34-2.57-1.21-1.11-2.17-2.44-2.86-3.98-.69-1.54-1.03-3.26-1.03-5.15ZM44.42,22.28c0,.78.14,1.49.43,2.14.28.65.66,1.21,1.12,1.69.46.48,1.02.86,1.67,1.13.64.27,1.33.4,2.05.4.72,0,1.4-.13,2.05-.4.64-.27,1.2-.65,1.66-1.12.47-.48.84-1.04,1.13-1.69.29-.65.43-1.34.43-2.09s-.14-1.4-.43-2.05c-.29-.65-.66-1.21-1.12-1.69s-1.02-.86-1.66-1.13c-.65-.27-1.33-.4-2.05-.41-.72,0-1.4.13-2.05.4-.65.27-1.2.65-1.67,1.12-.46.48-.84,1.04-1.12,1.67-.29.63-.43,1.31-.43,2.03Z"/><path class="cls-2" d="M68.23,10.86h8.15v2.84c2.22-2.13,4.71-3.19,7.47-3.19,3.42,0,6.03,1.44,7.83,4.32,1.83-2.91,4.44-4.36,7.83-4.36,1.08,0,2.1.16,3.06.47.96.31,1.79.81,2.47,1.49.69.68,1.24,1.55,1.64,2.63.4,1.08.61,2.39.61,3.92v14.99s-8.15,0-8.15,0v-11.39c0-1.17-.08-2.13-.25-2.88-.16-.75-.4-1.33-.72-1.76-.31-.42-.68-.7-1.1-.86-.42-.15-.87-.23-1.35-.23-2.61,0-3.92,1.91-3.92,5.72v11.39s-8.15,0-8.15,0v-11.39c0-1.17-.07-2.14-.22-2.9s-.37-1.37-.65-1.82-.65-.76-1.1-.92c-.45-.17-.98-.25-1.58-.25-.51,0-.99.08-1.44.23-.45.15-.85.44-1.19.88-.35.44-.62,1.03-.81,1.8s-.29,1.76-.29,2.99v11.39s-8.15,0-8.15,0V10.86Z"/><path class="cls-2" d="M120.21,23.78c0,3.51,1.65,5.27,4.95,5.27,1.77,0,3.11-.72,4-2.16h7.88c-1.59,5.28-5.57,7.92-11.93,7.92-1.95,0-3.74-.29-5.36-.88-1.62-.59-3.01-1.42-4.16-2.5-1.16-1.08-2.05-2.37-2.68-3.87-.63-1.5-.94-3.18-.94-5.04s.3-3.65.9-5.2c.6-1.54,1.46-2.86,2.56-3.94,1.11-1.08,2.46-1.91,4.03-2.5,1.58-.58,3.35-.88,5.33-.88,1.95,0,3.71.29,5.27.88,1.56.59,2.88,1.43,3.96,2.54,1.08,1.11,1.9,2.47,2.47,4.07s.86,3.41.86,5.42v.85h-17.15ZM129.75,19.06c-.27-1.14-.83-2.05-1.67-2.75-.84-.69-1.86-1.04-3.06-1.04-1.26,0-2.29.33-3.08.99-.79.66-1.3,1.59-1.51,2.79h9.32Z"/></g></g></g></svg>