<?xml version="1.0" encoding="UTF-8"?><svg id="Layer_2" xmlns="http://www.w3.org/2000/svg" xmlns:xlink="http://www.w3.org/1999/xlink" viewBox="0 0 100 100"><defs><style>.cls-1{fill:none;}.cls-2{fill:none;}.cls-3{clip-path:url(#clippath);fill:#C6C6C6}</style><clipPath id="clippath"><rect class="cls-1" width="100" height="100"/></clipPath></defs><g id="Layer_1-2"><g class="cls-3"><path class="cls-2" d="M-50-23.92h200v200H-50V-23.92ZM49.76,92.7V19.7h2.37v18.2c2.53,0,4.89-.06,7.24.03,1.18.04,1.47-.36,1.47-1.49-.04-7.9-.02-15.81-.02-23.71,0-1.11,0-2.21,0-3.47-.6,0-1.07,0-1.54,0-5.51,0-11.03.01-16.54.02q-1.83,0-1.83,1.8c0,26.66.02,53.33.03,79.99,0,.54.05,1.08.08,1.64h8.75ZM82.91,9.38h-19.88v83.25h8.79V19.7c2.32-.3,2.34-.3,2.34,1.85.02,4.95.02,9.9.02,14.85,0,.46,0,.92,0,1.5,2.61,0,5.04-.05,7.47.02,1.04.03,1.27-.37,1.26-1.32-.03-6.55-.02-13.09-.02-19.64,0-2.51,0-5.02,0-7.58ZM29.97,19.65c.02.53.06.99.07,1.46.01,5.15.05,10.3.01,15.45,0,1,.19,1.42,1.31,1.37,1.99-.1,4-.1,5.99,0,1.2.06,1.46-.38,1.45-1.5-.04-7.87-.02-15.73-.02-23.6,0-1.15,0-2.3,0-3.46h-19.87v83.26h8.81V19.65h2.26ZM11.14,119.84h4.24v-18.89h-6.41c-.34,2.63-.68,5.2-1.02,7.78-.08,0-.16,0-.24.01-.38-2.6-.76-5.21-1.14-7.78H.19v18.9h4.26v-11.39c.63,3.21,1.14,6.43,1.58,9.66.29,2.19.17,1.72,2.07,1.82.92.05,1.43-.16,1.41-1.19,0-.59.16-1.18.24-1.77.4-2.87.79-5.75,1.19-8.62.06,0,.13.01.19.02v11.46ZM40.71,119.82v-18.85h-4.12v7.72c-.06,0-.13,0-.19.01-.85-2.59-1.7-5.19-2.53-7.72h-4.1v18.88h4.14v-7.57c.65,1.39,1.05,2.8,1.47,4.2q1.13,3.72,5.08,3.41s.08-.02.24-.08ZM65.13,119.87v-8.39c1.2-.01,1.39.07,1.46,1,.09,1.31.08,2.63.1,3.94.01,1.14,0,2.27,0,3.44h4.57c0-2.18-.01-4.28,0-6.38.01-1.6-.51-2.85-2.26-3.48,1.85-.3,2.21-1.57,2.22-3.03,0-1.03,0-2.08-.18-3.09-.26-1.4-1.15-2.53-2.56-2.68-2.71-.28-5.45-.29-8.19-.42v19.09h4.85ZM54.07,110.39h0c0-1.44.02-2.87,0-4.31-.06-3.45-1.67-5.26-5.1-5.58-2.68-.25-6.18.83-6.25,4.96-.05,3.39-.1,6.78.05,10.16.12,2.64,1.49,4,4.09,4.55,4.31.91,7.15-1.34,7.21-5.72.02-1.36,0-2.71,0-4.07ZM-6.69,100.93c0,.58,0,1.06,0,1.53,0,4.31.01,8.62-.04,12.92,0,.59.28,1.63-.7,1.63-.98,0-.67-1.03-.67-1.62-.04-4.39-.02-8.78-.03-13.16,0-.44-.08-.88-.11-1.24h-4.8c0,5.04-.04,9.98.02,14.93.02,1.85,1.01,3.3,2.77,3.8,1.45.41,3.07.6,4.56.4,2.58-.34,3.87-2.04,3.88-4.64.03-4.59.02-9.17.02-13.76,0-.26-.07-.52-.11-.78h-4.8ZM-25.94,100.93v18.91h4.99v-6.9c.07,0,.14-.01.21-.02.58,2.31,1.15,4.61,1.74,6.94h5.09c-.64-2.16-1.07-4.28-1.89-6.24-1.22-2.92-1.05-5.66.22-8.49.59-1.32.92-2.75,1.4-4.25-.74,0-1.3,0-1.86,0q-2.73,0-3.53,2.61c-.39,1.28-.8,2.56-1.21,3.84-.09-.02-.19-.04-.28-.06v-6.34h-4.89ZM95.85,110.44s-.02,0-.03,0c0-1.72.03-3.43,0-5.15-.04-1.71-.69-3.27-2.28-3.92-1.34-.55-2.94-.89-4.37-.76-3.08.28-4.55,1.96-4.64,5.04-.09,3.23-.08,6.46,0,9.69.08,2.77,1.49,4.3,4.2,4.86,4.22.86,6.98-1.3,7.11-5.57.04-1.39,0-2.79,0-4.19ZM28.87,119.89c-.96-6.41-1.89-12.66-2.83-18.94h-7.19c-.83,6.31-1.66,12.57-2.49,18.92h5.09c.13-1.11.26-2.2.38-3.28h1.71c.11,1.15.21,2.21.31,3.3h5.03ZM121.66,119.93c-.96-6.44-1.9-12.72-2.83-18.99h-7.19c-.83,6.31-1.66,12.58-2.5,18.93h5.06c.13-1.14.26-2.23.39-3.32h1.76c.05.88.04,1.71.16,2.52.04.31.37.81.58.82,1.46.07,2.93.04,4.55.04ZM50.55,139.93h-.05c0-1.75.14-3.52-.05-5.25-.11-1.05-.48-2.28-1.18-3.01-1.87-1.96-4.3-2.11-6.76-1.31-2.26.73-3.06,2.54-3.08,4.75-.04,3.23-.07,6.45,0,9.68.06,2.8,1.53,4.45,4.3,4.87,3.62.54,6.88-.73,6.84-5.42-.01-1.43,0-2.87,0-4.3ZM108.27,106.57c0-.74.03-1.38,0-2.01-.12-2.15-.92-3.32-3.04-3.71-1.49-.28-3.1-.25-4.6-.03-.85.13-1.8.78-2.37,1.47-1.61,1.95-.97,6.42,1.05,7.96,1.01.78,2.06,1.52,3.15,2.17,1.32.79,1.74,1.96,1.51,3.35-.08.46-.6.86-.91,1.28-.3-.4-.78-.77-.85-1.2-.13-.88-.04-1.79-.04-2.69h-4.64c.06,1.01.09,1.96.17,2.9.19,2.15,1.19,3.45,3.22,3.92,1.07.25,2.22.34,3.32.25,1.53-.12,3.02-.59,3.89-2.01,1.4-2.28.61-6.82-1.49-8.45-1.07-.83-2.23-1.54-3.38-2.26-1.11-.7-1.39-1.72-1.14-2.9.07-.33.53-.58.82-.86.26.29.67.55.74.88.12.6.03,1.25.03,1.94h4.56ZM73.66,130.31c-1.91,0-3.62.04-5.33-.02-.77-.02-1.1.22-1.34.97-1.13,3.57-2.39,7.09-3.46,10.68-.37,1.25-.3,2.62-.45,4.1h5.82v3.28h4.73v-3.26c.51-.07.88-.12,1.24-.18v-3.03c-.43-.05-.78-.1-1.23-.16v-12.39ZM31.29,136.77c0-.87-.03-1.63,0-2.38.04-.74.15-1.55,1.17-1.44,1,.11,1.03.98.89,1.66-.21,1-.51,2.03-1,2.92-1.5,2.72-3.05,5.42-4.72,8.05-.79,1.24-.66,2.44-.56,3.73h10.33v-3.18h-5.08c.31-.5.5-.84.71-1.17,1.23-1.96,2.53-3.88,3.67-5.89,1.09-1.92,1.69-4.02.76-6.18-1.06-2.48-4.32-3.62-7.31-2.65-2.44.79-3.67,3.44-2.99,6.53h4.11ZM56.31,136.77c.04-.83.06-1.62.11-2.4.05-.69.08-1.46,1.05-1.41,1.01.05,1.14.9.99,1.58-.25,1.11-.59,2.25-1.14,3.24-1.4,2.55-2.86,5.07-4.44,7.51-.83,1.29-.89,2.57-.7,4.05h10.3v-3.24h-5.08c.37-.58.63-.98.88-1.38,1.2-1.93,2.46-3.82,3.59-5.79.93-1.63,1.4-3.42.95-5.29-.7-2.9-3.98-4.4-7.39-3.45-2.61.72-3.98,3.61-3.13,6.59h4ZM80.08,119.86c0-1.23-.03-2.38,0-3.53.04-1.35-.06-2.75.25-4.04.62-2.55,1.49-5.04,2.24-7.56.37-1.24.71-2.49,1.1-3.85-1.04,0-1.91,0-2.79,0-1.73,0-1.74,0-2.09,1.7-.32,1.58-.62,3.16-.93,4.74-.05-.01-.1-.02-.15-.03-.38-2.13-.76-4.26-1.13-6.36h-4.52c1.53,6.28,4.43,12.24,3.31,18.92h4.7ZM127.37,119.86v-18.87h-4.8v18.87h4.8Z"/><path d="M49.76,92.7h-8.75c-.03-.56-.08-1.1-.08-1.64-.01-26.66-.02-53.33-.03-79.99q0-1.79,1.83-1.8c5.51,0,11.03-.02,16.54-.02.47,0,.94,0,1.54,0,0,1.26,0,2.36,0,3.47,0,7.9-.02,15.81.02,23.71,0,1.13-.28,1.54-1.47,1.49-2.35-.09-4.7-.03-7.24-.03v-18.2h-2.37v73Z"/><path d="M82.91,9.38c0,2.56,0,5.07,0,7.58,0,6.55-.02,13.09.02,19.64,0,.95-.22,1.35-1.26,1.32-2.43-.07-4.86-.02-7.47-.02,0-.57,0-1.04,0-1.5,0-4.95,0-9.9-.02-14.85,0-2.15-.02-2.15-2.34-1.85v72.94h-8.79V9.38h19.88Z"/><path d="M29.97,19.65h-2.26v72.98h-8.81V9.37h19.87c0,1.17,0,2.31,0,3.46,0,7.87-.02,15.73.02,23.6,0,1.12-.25,1.56-1.45,1.5-1.99-.09-4-.09-5.99,0-1.12.06-1.31-.37-1.31-1.37.04-5.15,0-10.3-.01-15.45,0-.47-.04-.93-.07-1.46Z"/></g></g></svg>