<?xml version="1.0" encoding="UTF-8"?>
<svg xmlns="http://www.w3.org/2000/svg" version="1.1" viewBox="0 0 830 1200">
  <defs>
    <style>
      .cls-1 {
        fill: #c6c6c6;
      }
    </style>
  </defs>
  <!-- Generator: Adobe Illustrator 28.6.0, SVG Export Plug-In . SVG Version: 1.2.0 Build 709)  -->
  <g>
    <g id="Layer_1">
      <g id="Layer_1-2" data-name="Layer_1">
        <path class="cls-1" d="M385.5,1.1c-55.5,4.4-104.3,17.6-153,41.4C86.8,113.7-4.5,264.8.3,426.5c1.9,60.5,15.2,115.5,40.6,168,10.9,22.5,18.3,35.3,33.1,57.5,6.5,9.6,85.6,136.9,176,282.7,90.3,145.9,164.6,265.3,165,265.3s74.7-119.4,165-265.2c90.4-145.9,169.5-273.2,176-282.8,14.8-22.2,22.2-35,33.1-57.5,42.1-86.9,52-186.9,27.9-282.1-24.4-95.8-82.2-179.5-164-237.1C583.4,26.2,497.9-.6,412.6,0c-9.4.1-21.6.5-27.1,1h0ZM449,177.5c44,8,81.3,27.1,112,57.5,76.9,76.1,82.5,198,13,281.2-33.5,40.2-81.7,66.3-134.4,72.8-11.4,1.4-37.8,1.4-49.2,0-85.3-10.5-155-71.5-176.4-154.4-14.1-54.5-5.2-113.6,24.3-161.3,33-53.1,86.2-87.6,149.7-96.8,13-1.9,48.1-1.3,61,1h0Z"/>
      </g>
    </g>
  </g>
</svg>