<?xml version="1.0" encoding="UTF-8"?><svg id="Layer_2" xmlns="http://www.w3.org/2000/svg" viewBox="0 0 183.08 66.44"><defs><style>.cls-1{isolation:isolate;}.cls-2{fill:#e02172;}</style></defs><g id="Layer_1-2"><g id="_企画" class="cls-1"><g class="cls-1"><path class="cls-2" d="M125.57,38.71c-.11,0-.18.03-.21.03,3.54,4.8,10.4,11.31,17.26,13.13.14.04.17.18.17.35,0,.32-.14.74-.31.74-.38,0-2.42.17-3.26.77-.1.07-.21.11-.35.11-1.08,0-8.54-5.46-14.42-14.14-6.83,10.64-16.14,16.34-16.94,16.34-.46,0-.91-.49-.91-.84,0-.14.07-.24.18-.31,7.21-4.27,13.83-12.63,15.89-16.59.31-.56.53-1.4.63-1.93.04-.21.07-.31.18-.31.42,0,3.43,1.19,3.43,2.14,0,.32-.35.53-1.02.53h-.31ZM120.18,65.03c-2.87,0-6.86.24-8.44.42-.77.07-2.21-1.61-2.21-2.21,0-.14.07-.21.21-.21h.04c1.22.17,4.58.38,7.63.49.07-1.68.11-3.5.11-5.14,0-4.41-.28-5.64-.35-5.85-.07-.21-.11-.38-.11-.53s.07-.21.31-.21c1.47,0,3.46.59,3.46,1.16,0,.32-.38.63-.98.84-.49.18-.56,2.17-.56,9.8h4.27c.04-2.76.11-6.72.11-10.04,0-3.71-.07-5.39-.35-6.86-.07-.24-.14-.42-.14-.52,0-.17.1-.21.38-.21,1.22,0,3.5.38,3.5,1.02,0,.31-.38.67-.98.88-.46.14-.49.73-.6,6.93h2.52c.7,0,.91-.21,1.23-.59,1.19-1.44,1.47-1.75,1.82-1.75.91,0,3.08,2.21,3.08,3.12,0,.35-.25.56-.91.56h-7.77c0,1.29-.04,2.66-.04,3.96s.04,2.48.03,3.54h6.54c.81,0,1.05-.17,1.44-.63.35-.39.95-1.16,1.29-1.44.31-.21.49-.35.7-.35.95,0,3.39,2.38,3.39,3.26,0,.35-.28.6-1.08.59h-17.57Z"/><path class="cls-2" d="M164.71,59.02c0-.38.04-.88.04-1.44h-10.36s0,1.47,0,1.47c.04.95-1.12.95-1.19.95-.46,0-.88-.25-.88-.77v-.1c.21-2.14.32-5.11.32-7.91,0-.39,0-4.83-.38-7.04v-.14c0-.1,0-.14.11-.14.35,0,1.82.77,2.45,1.19h3.82c0-1.92-.11-3.99-.21-4.55,0-.11-.04-.21-.04-.28h-1.23c-1.57,0-6.86.03-9.9.59-.56.11-2.07-1.5-2.07-2.21,0-.14.07-.25.25-.25h.07c4.45.39,8.4.46,11.1.46h10.57c.46,0,.84-.14,1.12-.49,1.26-1.65,1.68-1.89,2.03-1.89.98,0,3.32,2.13,3.32,3.15,0,.38-.28.63-.98.63h-12.32s.35.07.35.07c.49.1.7.28.7.46,0,.25-.31.52-.66.67-.28.14-.39.35-.39.74-.04.7-.07,1.71-.07,2.91h3.71c.46,0,.63-.17.88-.49.21-.24.35-.49.67-.49.07,0,.14,0,.24.04,1.86.91,2.17,1.47,2.17,1.79,0,.28-.28.59-.91.88-.53.32-.63.39-.63,3.29s.21,6.34.35,8.75c0,.52-.46,1.05-1.19,1.05-.46,0-.84-.24-.84-.8v-.07ZM170.41,65.6c.04-.67.07-1.51.07-2.42h-22.05s0,2.27,0,2.27c0,.59-.7.98-1.33.98-.49,0-.91-.25-.91-.77v-.07c.18-3.29.42-9.42.42-14.32,0-2.17-.03-4.9-.28-6.09-.04-.25-.07-.42-.07-.53,0-.1.04-.17.25-.17.35,0,3.54.32,3.54,1.05,0,.31-.42.63-1.05.88-.28.11-.38.46-.38.88-.21,2.87-.25,5.6-.25,8.33,0,2,.04,3.99.04,6.06h22.12c.04-1.75.04-3.74.04-5.67,0-2.66-.04-8.68-.42-10.82-.07-.25-.11-.42-.11-.53,0-.1.07-.17.28-.17,0,0,3.5.21,3.5,1.09,0,.31-.46.7-.98.91-.42.14-.53.84-.53,5.29s.28,8.93.38,13.69c0,.59-.7.98-1.33.98-.53,0-.95-.25-.95-.8v-.04ZM158.62,46.42h-3.78s-.14.1-.14.1c-.28.18-.42.42-.42.63,0,1.05,0,2.13.04,3.19h4.31v-3.92ZM158.54,56.25c0-1.33.04-2.91.07-4.59h-4.3c0,1.54.04,3.04.04,4.58h4.2ZM164.78,46.94c0-.25-.07-.53-.56-.53h-3.99v3.92h4.55s0-3.39,0-3.39ZM164.78,56.25c0-1.4.04-3.04.04-4.58h-4.58c0,1.58.04,3.15.07,4.58h4.48Z"/></g></g><g id="Projects" class="cls-1"><g class="cls-1"><path class="cls-2" d="M8.82,36.53H0S0,2.6,0,2.6h14.04c3.81,0,6.73.99,8.75,2.97,2.02,1.98,3.04,4.77,3.04,8.37,0,3.6-1.01,6.39-3.04,8.37-2.03,1.98-4.94,2.97-8.75,2.97h-5.22v11.25ZM8.82,18.17h2.93c3.24,0,4.86-1.41,4.86-4.23,0-2.82-1.62-4.23-4.86-4.23h-2.92v8.46Z"/><path class="cls-2" d="M29.75,13.45h8.15v3.78c.87-1.38,1.93-2.44,3.2-3.17,1.26-.74,2.73-1.1,4.41-1.1h.7c.25,0,.55.03.88.09v7.79c-1.08-.54-2.25-.81-3.51-.81-1.89,0-3.31.56-4.25,1.69-.95,1.12-1.42,2.77-1.42,4.93v9.9s-8.15,0-8.15,0V13.45Z"/><path class="cls-2" d="M50,24.79c0-1.71.34-3.31,1.04-4.79.69-1.49,1.65-2.78,2.88-3.87,1.23-1.09,2.69-1.96,4.39-2.59,1.7-.63,3.55-.95,5.56-.95,1.98,0,3.82.31,5.51.92,1.7.62,3.17,1.47,4.41,2.57,1.24,1.1,2.21,2.4,2.9,3.92.69,1.52,1.04,3.19,1.04,5.02s-.35,3.5-1.06,5.02c-.71,1.52-1.67,2.82-2.9,3.92-1.23,1.1-2.71,1.94-4.43,2.54-1.73.6-3.59.9-5.6.9-1.98,0-3.81-.3-5.49-.9-1.68-.6-3.13-1.46-4.34-2.57-1.21-1.11-2.17-2.44-2.86-3.98-.69-1.54-1.04-3.26-1.04-5.15ZM58.6,24.88c0,.78.14,1.49.43,2.14.28.65.66,1.21,1.12,1.69.46.48,1.02.86,1.66,1.13s1.33.41,2.05.41,1.4-.13,2.05-.4,1.2-.64,1.67-1.12c.46-.48.84-1.04,1.12-1.69s.43-1.34.43-2.09-.14-1.4-.43-2.05-.66-1.21-1.12-1.69c-.46-.48-1.02-.86-1.66-1.13-.65-.27-1.33-.41-2.05-.41s-1.4.13-2.05.4c-.65.27-1.2.65-1.67,1.12-.46.48-.84,1.04-1.12,1.67s-.43,1.31-.43,2.03Z"/><path class="cls-2" d="M81.87,4.59c0-.63.12-1.22.36-1.78.24-.55.57-1.04.99-1.46.42-.42.91-.75,1.46-.99.55-.24,1.15-.36,1.78-.36s1.22.12,1.78.36c.55.24,1.04.57,1.46.99.42.42.75.91.99,1.46.24.55.36,1.15.36,1.78s-.12,1.22-.36,1.78-.57,1.04-.99,1.46-.91.75-1.46.99c-.56.24-1.15.36-1.78.36s-1.22-.12-1.78-.36c-.56-.24-1.04-.57-1.46-.99-.42-.42-.75-.91-.99-1.46-.24-.55-.36-1.15-.36-1.78ZM90.55,13.46v34.61s-8.15,0-8.15,0V13.46s8.15,0,8.15,0Z"/><path class="cls-2" d="M103.47,26.38c0,3.51,1.65,5.27,4.95,5.27,1.77,0,3.11-.72,4.01-2.16h7.88c-1.59,5.28-5.57,7.92-11.93,7.92-1.95,0-3.74-.29-5.36-.88-1.62-.58-3.01-1.42-4.16-2.5-1.16-1.08-2.05-2.37-2.68-3.87-.63-1.5-.94-3.18-.94-5.04s.3-3.65.9-5.2c.6-1.54,1.46-2.86,2.57-3.94,1.11-1.08,2.45-1.91,4.03-2.5,1.58-.58,3.35-.88,5.33-.88,1.95,0,3.71.29,5.27.88,1.56.58,2.88,1.43,3.96,2.54,1.08,1.11,1.91,2.47,2.47,4.07.57,1.6.86,3.41.86,5.42v.86h-17.15ZM113.01,21.65c-.27-1.14-.83-2.06-1.66-2.75-.84-.69-1.86-1.04-3.06-1.04-1.26,0-2.29.33-3.08.99-.8.66-1.3,1.59-1.51,2.79h9.32Z"/><path class="cls-2" d="M142.67,20.94c-1.41-.96-2.83-1.44-4.28-1.44-.78,0-1.51.13-2.18.4-.68.27-1.27.65-1.78,1.15-.51.5-.91,1.08-1.19,1.76-.29.67-.43,1.43-.43,2.27s.14,1.55.43,2.23c.29.68.68,1.26,1.17,1.76.49.5,1.09.88,1.78,1.15.69.27,1.42.4,2.21.4,1.53,0,2.96-.52,4.28-1.57v6.93c-2.01.87-3.92,1.3-5.72,1.3-1.68,0-3.28-.29-4.79-.86-1.52-.57-2.85-1.39-4.01-2.45-1.15-1.06-2.08-2.34-2.77-3.83-.69-1.49-1.04-3.14-1.04-4.97s.33-3.5.99-5.02,1.56-2.82,2.7-3.92c1.14-1.09,2.5-1.95,4.07-2.56,1.58-.61,3.27-.92,5.06-.92,1.98,0,3.81.42,5.49,1.26v6.93Z"/><path class="cls-2" d="M156.39,20.26v16.29h-8.15v-16.29s-2.7,0-2.7,0v-6.8s2.7,0,2.7,0v-6.93s8.15,0,8.15,0v6.93s4.63,0,4.63,0v6.79h-4.63Z"/><path class="cls-2" d="M179.62,19.41c-1.5-.78-2.97-1.17-4.41-1.17-.75,0-1.36.15-1.82.45s-.7.71-.7,1.21c0,.27.04.49.11.65.07.17.24.32.49.47.26.15.63.29,1.12.41.5.12,1.15.27,1.96.45,2.25.45,3.93,1.25,5.04,2.41,1.11,1.16,1.66,2.63,1.66,4.43,0,1.35-.27,2.57-.81,3.65-.54,1.08-1.29,1.99-2.25,2.72-.96.74-2.12,1.3-3.46,1.71-1.35.4-2.84.61-4.46.61-3.12,0-6.2-.88-9.23-2.66l2.97-5.76c2.28,1.56,4.44,2.34,6.48,2.34.75,0,1.36-.17,1.84-.5.48-.33.72-.75.72-1.26,0-.3-.04-.55-.11-.74s-.23-.38-.47-.54-.59-.32-1.06-.45-1.07-.28-1.82-.43c-2.52-.51-4.28-1.27-5.29-2.27-1.01-1.01-1.51-2.39-1.51-4.16,0-1.29.24-2.45.72-3.49.48-1.04,1.17-1.91,2.07-2.63.9-.72,1.99-1.28,3.26-1.67,1.28-.39,2.69-.58,4.25-.58,2.55,0,5.03.5,7.43,1.49l-2.75,5.31Z"/></g></g></g></svg>