<?xml version="1.0" encoding="UTF-8"?><svg id="Layer_2" xmlns="http://www.w3.org/2000/svg" viewBox="0 0 124.79 468.12"><defs><style>.cls-1{isolation:isolate;}.cls-2{fill:#c6c6c6;}.cls-3{fill:#ff40b6;}</style></defs><g id="Layer_1-2"><g id="_熊_野_寮_祭" class="cls-1"><g class="cls-1"><path class="cls-2" d="M25.56,20.76c2.76-6.96,4.68-15,5.16-19.2.12-1.08-.12-1.56.72-1.56,2.04,0,10.32,2.76,10.32,5.28,0,1.2-1.56,1.92-3.48,2.16-1.2.12-1.68.36-2.52,2.28-1.44,2.76-3.24,7.2-5.28,10.8,7.08-.48,14.76-1.2,21.6-2.16-2.28-2.64-4.8-5.04-7.2-6.72-.24-.12-.36-.36-.36-.6,0-1.08,1.2-2.52,2.52-2.52.48,0,16.8,7.92,16.8,15.96,0,2.4-1.44,4.2-3.24,4.2-1.2,0-2.64-.84-3.84-3.24-.48-1.08-1.08-2.04-1.8-3.12-11.04,2.04-24.6,3.6-37.32,4.92-.96.12-1.56,2.4-2.64,2.4-1.56,0-5.28-8.16-5.28-9,0-.36.24-.48.6-.48h.36c1.92.36,4.44.48,7.44.6h7.44ZM10.8,107.76c0-1.56,1.2-3.48,3.72-4.32,7.08-2.4,11.52-8.04,13.8-13.8.24-.6.84-.84,1.44-.84,1.56,0,3.36,1.2,3.36,2.4,0,4.32-10.2,20.04-18.48,20.04-2.4,0-3.84-1.56-3.84-3.48ZM54.96,72.72c0,7.08-5.88,10.32-10.2,10.32-.48,0-.84-.12-1.32-.72-1.56-1.68-5.28-2.52-8.76-3.36-.72-.12-.96-.84-.96-1.68,0-1.32.6-2.64,1.44-2.64h.12c3.96.6,6.96.96,9,.96,3.24,0,4.56-.96,4.68-3.96v-9h-20.04v18.96c0,2.16-2.28,3.48-4.32,3.48-1.68,0-3-.84-3-2.64v-.6c1.08-6.84,1.92-22.32,1.92-35.04,0-6.6-.24-12.36-.72-15.84v-.48c0-.36,0-.48.48-.48.6,0,1.92.24,9.24,3.84h12.72c2.64,0,2.4-.96,3.96-2.16.84-.72,1.32-1.32,2.16-1.32,2.64,0,7.8,3.96,7.8,5.64,0,.96-.84,1.92-3,2.76-1.56.72-1.92.96-1.92,5.16,0,6,.6,22.8.72,28.32v.48ZM48.96,50.28h-19.92c0,2.4-.12,5.04-.12,7.8h20.04v-7.8ZM31.08,38.28l-.12.12c-1.44.84-1.8,1.44-1.8,2.4,0,1.32,0,3-.12,4.92h19.8c0-2.28,0-4.32-.12-5.64,0-.84-.24-1.8-2.28-1.8h-15.36ZM46.8,106.32c0-.48.12-.96.24-1.56.36-1.56.6-3.36.6-5.16,0-3-.48-6.12-1.44-8.52,0-.12-.12-.24-.12-.36,0-.84,1.68-1.44,3-1.44.84,0,1.56.12,1.8.6,1.68,3.36,4.08,9.24,4.08,13.56,0,4.8-3.12,6.36-5.04,6.36-1.68,0-3.12-1.08-3.12-3.48ZM73.8,105.24c-.96-4.32-4.2-10.56-7.2-13.44-.24-.24-.24-.36-.24-.6,0-1.08,1.68-2.16,2.88-2.16,1.56,0,12.12,9,12.12,15.48,0,2.88-1.92,4.8-3.84,4.8-1.56,0-3.12-1.2-3.72-4.08ZM108.6,20.76c-.48,4.8-.6,5.76-.6,6.36,0,1.2.36,1.92,1.56,2.64,1.56.84,2.28,1.32,2.28,2.88,0,5.16-15,6.6-25.56,6.6-7.44,0-18.48-.36-18.48-9.12v-.24c.12-3,.36-9.24.36-14.16,0-1.8,0-3.36-.12-4.68,0-1.8-.24-3.6-.6-5.4-.24-.84-.36-1.32-.36-1.8s.24-.6,1.2-.6c2.04,0,9.6,1.08,9.6,3,0,1.08-1.2,2.16-2.4,3-.96.6-1.2,1.68-1.32,3.24,0,.96-.12,4.08-.12,7.32,15.48-6.6,18.84-9.12,21.84-12.12.36-.36.6-.6.84-.6,1.2,0,6.12,6.72,6.12,8.88,0,.96-.6,1.32-1.56,1.32s-2.04-.36-3.36-.84c-.36-.12-.72-.24-1.08-.24-.24,0-18.96,6.96-22.92,8.4v4.32c0,3.96,4.56,4.92,13.32,4.92,14.88,0,15.12-1.68,16.68-13.32.12-1.08,1.2-1.56,2.28-1.56,1.2,0,2.4.6,2.4,1.68v.12ZM110.16,69.84c0,1.32.24,2.28,1.44,3,1.68.84,2.4,1.32,2.4,2.88,0,2.52-3.48,6.84-27.12,6.84-11.88,0-19.08-1.92-19.08-9.36v-.24c.12-3.12.36-11.16.36-17.04,0-2.16,0-3.96-.12-5.28,0-1.68-.24-3.48-.6-5.28-.24-.84-.36-1.32-.36-1.8s.24-.6,1.2-.6c1.92,0,9.6.72,9.6,3,0,.96-1.2,2.04-2.4,3-.96.6-1.2,1.68-1.32,3.24,0,.96-.12,4.56-.12,8.4,14.88-6.48,19.32-9.12,22.44-12.6.36-.36.6-.6.84-.6,1.32,0,6.24,7.44,6.24,9.12,0,.96-.72,1.32-1.68,1.32-.84,0-2.04-.36-3.24-.84-.36-.12-.72-.24-1.08-.24-.6,0-1.08.24-1.92.6l-21.72,8.16v6.48c0,2.4.48,4.92,13.8,4.92,4.2,0,8.52-.24,10.8-.6,5.52-.96,5.88-2.04,7.56-13.08.12-1.08,1.2-1.56,2.28-1.56,1.2,0,2.4.6,2.4,1.68,0,.36-.36,3.12-.6,5.28v1.2ZM105.12,106.8c-3.12-5.64-10.44-11.4-16.08-15-.24-.24-.36-.48-.36-.72,0-1.2,1.8-2.76,3.12-2.76.6,0,21.12,9.84,21.12,17.28,0,2.52-1.68,4.32-3.6,4.32-1.44,0-3-.84-4.2-3.12Z"/></g><g class="cls-1"><path class="cls-2" d="M39.84,191.52c0,3.6.12,7.32.12,11.4,11.4-3.24,21.96-6.36,25.08-7.68.24-.12.48-.12.72-.12,1.32,0,2.16,1.44,2.16,2.76,0,2.4-.6,2.64-53.4,19.08-1.44.48-2.16,3.6-3.84,3.6-1.92,0-5.64-6-6.48-8.88-.12-.24-.12-.36-.12-.6,0-.36.36-.6,1.08-.6,4.68-.12,16.68-2.76,28.8-6l.24-12.96h-.48c-7.68.12-10.32,1.08-14.52,1.68-2.76.48-6.48-5.4-6.48-6.72,0-.36.12-.6.6-.6h.12c4.44.6,12.24,1.32,20.76,1.32.12-5.28.24-10.8.24-16.08h-11.52l.12,4.56c0,2.04-2.04,3.24-3.96,3.24-1.56,0-2.88-.72-2.88-2.64v-.36c.72-7.08,1.08-15.24,1.08-23.76,0-4.92-.24-17.88-1.2-24.84v-.6c0-.36,0-.48.36-.48,1.68,0,7.32,3.72,7.68,3.96h24.96c2.64,0,2.04-.96,3.6-2.64.6-.48,1.08-.96,1.68-.96,1.2,0,8.4,3.72,8.4,6.36,0,1.08-.96,2.04-3.12,3.12-1.44.6-1.92,1.08-1.92,8.88s.6,20.16.96,28.68c.12,2.04-2.28,3-3.96,3-1.44,0-2.64-.72-2.64-2.28v-3.24h-12.36c0,5.28,0,10.44.12,15.96l4.8-.12c1.92,0,2.4-.6,3.48-1.92,3.96-4.8,4.32-5.28,5.4-5.28,3.24,0,8.64,6.6,8.64,9.48,0,1.08-.84,1.92-2.88,1.92l-19.44.36ZM34.2,140.04c0-2.52-.12-3.96-.24-5.28h-9.12l-.84.6c-.84.6-1.32,1.32-1.32,2.16v11.28h11.76l-.24-8.76ZM34.44,153.24h-11.64c0,4.32.12,8.52.12,13.2h11.52v-13.2ZM52.2,166.44c.12-4.2.12-8.76.12-13.2h-12.48c0,4.56,0,8.88-.12,13.2h12.48ZM52.32,148.8c0-5.04-.12-9.48-.12-12.36,0-.84-.24-1.68-1.8-1.68h-8.16c.48.24.72.48.72.84,0,.48-.36.96-1.2,1.44-.84.48-1.68.24-1.68,2.76,0,3.12-.12,6.12-.12,9h12.36ZM88.92,216.48c0,7.8-8.4,10.8-11.64,10.8-.6,0-.96-.12-1.56-.84-1.8-2.4-8.64-3.24-11.88-3.84-.6-.12-.84-.96-.84-1.8,0-1.32.6-3,1.44-2.88,5.64.6,9.6,1.08,12.48,1.08,3.84,0,5.28-1.08,5.4-4.8.12-4.2.24-15,.24-24.6,0-6.24-.12-12-.24-15.24,0-2.76-.24-5.16-.48-6.6-5.16.24-11.64.84-15.12,1.2-2.4.24-7.32-5.52-7.32-7.32,0-.36.12-.48.48-.48h.12c7.08.84,19.08,1.8,25.68,1.8h19.44c1.32,0,2.16-1.2,2.88-2.04.72-.72,1.2-1.2,2.04-1.2.36,0,.84.12,1.32.24,2.4,1.2,7.68,4.68,7.68,6.84,0,1.32-1.08,2.52-3.84,3.24-.96.24-2.76.48-3.72,1.56-11.52,12.36-12,12.6-13.08,12.6-1.44,0-3.12-1.44-3.12-2.52,0-.24.12-.48.24-.6,2.4-2.64,9.36-11.64,9.36-12.84,0-.36-.48-.6-1.2-.6h-15.24c1.68.6,3.72,1.2,3.72,2.28,0,.48-.6,1.2-2.4,2.16-1.32.6-1.32,1.2-1.32,13.08,0,11.16.24,25.68.48,30.48v.84ZM86.52,135.12c-4.08,0-10.92.72-15,1.2-2.28.36-6.84-5.52-6.84-7.08,0-.24.12-.36.48-.36h.12c6.24.72,13.92,1.56,19.68,1.56h10.32c1.2,0,2.04-.96,2.76-1.68.6-.72,1.08-1.08,1.8-1.08,1.8,0,8.28,4.2,8.28,6.96,0,1.08-.84,2.04-2.88,2.76-1.2.36-3,.84-3.96,1.8-2.88,3.24-8.16,9.6-11.52,12.84,1.68,1.2,3,4.8,3,6,0,2.16-1.32,3.6-2.88,3.6-1.2,0-2.76-.84-4.08-3-2.64-4.32-9-9.96-12.84-12.24-.36-.24-.48-.6-.48-.96,0-1.08,1.32-2.64,2.64-2.64,1.08,0,6.84,2.88,11.64,6.6,3.12-4.32,8.52-13.08,8.52-13.8,0-.36-.36-.48-.96-.48h-7.8Z"/></g><g class="cls-1"><path class="cls-2" d="M77.52,320.16h-9.84c.48.12.96.36,1.32.6.36.12.84.48.84,1.08,0,.48-.48,1.08-2.16,1.92-1.2.84-1.2,2.4-1.2,4.44,0,3.84.36,7.32.36,11.16,0,5.52-6.48,9.84-10.92,9.84-.6,0-1.08-.36-1.56-1.08-1.8-2.52-8.88-3.12-12-3.72-.72-.12-.96-.84-.96-1.68,0-1.2.6-2.52,1.32-2.52h.12c3.72.36,7.8,1.08,11.16,1.08,3.72,0,6.48-.84,6.48-4.08v-.12s.12-.96.12-3.24c0-4.32-.36-11.52-.72-13.68h-12.12l.12,1.32c0,1.92-2.04,3-3.84,3-1.44,0-2.76-.72-2.76-2.4v-.36c.6-6.12.96-13.44.96-18.84,0-1.32-.12-2.64-.12-3.72v-.36c-18.6,17.28-36.12,22.92-36.24,22.92-1.44,0-2.88-1.92-2.88-3.24,0-.48.24-.84.72-1.08,23.16-8.76,40.44-27.6,48.96-39.96h-4.8c-3.36,0-16.56.84-22.92,1.68h-.24c-2.16,0-6.24-5.04-6.24-6.84,0-.36,0-.48.24-.6-.6.12-1.08.24-1.56.24-2.4,0-3.96-1.92-3.96-4.08,0-1.56.96-3.36,3.24-4.44,5.88-2.88,8.52-7.44,9.48-14.88.12-.72.96-1.08,1.92-1.08,1.32,0,3,.72,3,1.8,0,0-.12,2.88-.48,4.92h29.52c0-1.68-.12-3.72-.12-6-.24-3.72-.6-5.16-1.32-8.88,0-.24-.12-.6-.12-.84,0-.48.24-.84,1.08-.84h.48c10.2,1.56,11.52,1.92,11.52,3.6,0,1.2-1.56,2.52-3.84,3.48-.84.36-1.56.72-1.56,9.48h28.08c1.8,0,2.16-1.08,3.12-2.16.96-.96,1.8-1.56,2.64-1.56,1.08,0,10.92,4.68,10.92,8.88,0,1.8-1.92,3.24-6.36,3.24-3.72,0-6.36,2.52-8.64,4.92-.24.24-.72.36-1.08.36-1.32,0-3-.96-3-2.16,0-.24.12-.48.24-.72,2.76-4.68,2.88-5.16,2.88-5.4,0-.12-.12-.24-1.2-.24H29.16c-2.64,7.92-8.28,11.64-10.2,12.24h.36c10.92,1.08,24.48,1.32,29.28,1.32h6.96c3.24-5.04,4.56-11.04,4.68-11.52.12-.48.12-.96.6-.96.24,0,.36.12.72.24,2.64.84,9.48,3.36,9.48,5.64,0,1.08-1.2,1.92-3.84,2.04-1.32,0-2.16,1.68-2.76,2.52l-1.08,2.04h28.68c1.2,0,2.52-.36,3.48-1.56.6-.72,3.84-5.16,6-5.16,3.12,0,9.72,6.24,9.72,9.36,0,1.2-.84,1.92-3,1.92h-10.92c7.08,4.68,7.2,6.84,7.2,7.32,0,.96-.6,1.68-1.8,1.68-.72,0-1.56-.24-2.52-.72-.6-.24-.96-.36-1.2-.36-.36,0-.72.12-1.2.36-2.16,1.2-8.28,5.4-11.4,7.08,8.64,6.24,20.52,11.76,36.84,13.68.72.12.96.84.96,1.56,0,1.2-.6,2.4-1.32,2.52-1.32,0-6.48.96-10.32,3.72-.48.36-.96.6-1.56.6-1.08,0-14.28-4.08-27.6-15.96,0,.48-.12,1.08-.12,1.92v1.8c0,4.92.6,15.6.72,18.24.12,1.92-1.56,3.36-3.72,3.36-1.44,0-2.76-.84-2.76-2.64v-1.44ZM48.48,334.2c-.36,0-.84,0-1.32-.12-.36-.12-.6-.12-.84-.12-.72,0-1.32.24-2.16.72-10.2,5.64-30.24,13.56-36.12,13.56-1.32,0-2.28-1.56-2.28-2.76,0-.84.36-1.56,1.08-1.68,4.68-1.32,30-9.72,36-18.24.36-.48.48-.6.72-.6,1.44,0,6.84,6,6.84,7.92,0,.96-.72,1.32-1.92,1.32ZM32.4,291.48c-2.04-2.76-7.08-5.88-10.08-7.44-.36-.12-.48-.48-.48-.72,0-1.08,1.44-2.76,2.52-2.76.24,0,14.88,3.6,14.88,9.96,0,1.92-1.32,3.6-3,3.6-1.08,0-2.52-.72-3.84-2.64ZM49.2,296.64c-1.56,1.56-1.68,1.68-1.68,2.28v4.8h30.36c0-2.16,0-4.08-.12-5.88,0-.84-.6-1.2-1.32-1.2h-27.24ZM47.64,308.04c0,2.64,0,5.16.12,7.8h30c0-2.64.12-5.28.12-7.8h-30.24ZM60.36,277.44c-2.88,4.32-6.72,9.36-11.4,14.52l.36.24h26.52c.36,0,.6,0,.72-.12-5.04-5.52-8.64-10.92-11.04-14.64h-5.16ZM70.8,277.44c2.76,3.72,6.72,8.28,12.12,12.72,9.36-8.16,11.64-10.08,12.72-12.72h-24.84ZM101.04,343.56c-5.64-5.64-14.76-9.36-24.96-12.6-.6-.24-.96-.72-.96-1.44,0-1.2,1.08-2.76,2.28-2.76,1.08,0,31.56,5.4,31.56,15.84,0,2.04-1.2,3.6-3,3.6-1.32,0-3-.72-4.92-2.64Z"/></g><g class="cls-1"><path class="cls-3" d="M37.56,379.68l-5.52,7.32c5.76.96,10.44,2.88,10.44,6.48,0,1.68-1.2,3.12-2.76,3.12-.84,0-1.8-.36-2.64-1.2-2.4-2.04-5.4-3.6-8.28-4.44-2.52,3-5.04,5.88-7.8,8.64,9.72,1.92,11.88,4.56,11.88,7.2,0,1.8-1.32,3.12-2.88,3.12-.84,0-1.8-.36-2.76-1.32-2.76-2.76-6.48-4.68-9.84-5.52-3.36,3.24-6.72,6-8.04,6-1.56,0-3.24-1.32-3.24-2.52,0-.36.12-.6.48-.84,15-11.76,31.8-38.04,32.4-43.08.12-.48,0-1.08.72-1.08.84,0,10.32,3.6,10.32,5.64,0,.84-1.08,1.56-3.96,1.8-1.08.12-1.68,0-2.52,1.56-.72,1.2-1.68,2.76-2.76,4.32h11.88c1.32,0,1.92-.6,2.76-1.56.48-.6.96-1.08,1.56-1.08,2.04,0,7.2,4.68,7.2,6.24,0,1.08-.84,2.04-2.28,2.52-1.56.48-2.04.84-2.52,1.92-7.92,16.08-27.72,45.12-55.8,58.2-.12.12-.36.12-.6.12-1.32,0-3-1.8-3-3.12,0-.48.12-.96.72-1.2,33.36-16.2,51.96-55.32,51.96-56.88,0-.24-.24-.36-.72-.36h-14.4ZM44.52,446.16c-.96,0-1.68.6-2.4,1.32-11.04,11.28-24.96,17.76-27.12,17.76-1.68,0-3.12-1.56-3.12-2.88,0-.48.24-.96.84-1.2,9.72-4.44,23.52-15.36,26.28-22.44.24-.6.6-.84,1.08-.84.6,0,8.64,4.44,8.64,6.96,0,.84-.72,1.44-2.52,1.44-.36,0-.84,0-1.44-.12h-.24ZM68.4,431.64c.24.12.48.36.48.72s-.48.96-2.04,1.44c-.72.24-.96,1.2-.96,2.16-.12.96-.12,2.88-.12,5.04,0,5.52.24,13.32.36,17.28v.48c0,3.84-2.4,8.4-10.08,9.36-.72,0-1.08-.24-1.68-.96-1.56-2.04-7.8-2.52-10.56-3-.96-.12-1.32-1.08-1.32-2.04,0-1.2.6-2.28,1.68-2.28h.12c4.44.6,7.68.96,10.08.96,4.08,0,5.28-1.2,5.4-4.68,0-20.88,0-21.36-.36-24.48h-6.24c-6.12,0-12.96.6-19.56,1.56-1.92.24-6.24-4.56-6.24-6.84,0-.36.24-.6.6-.6h.12c9.72.96,18.72,1.56,25.68,1.56h24.36c1.92,0,2.76-1.2,3.6-2.28.72-1.08,3.72-4.92,5.64-4.92,3.24,0,9.48,6.6,9.48,9.72,0,1.08-.72,1.8-2.76,1.8h-25.68ZM62.16,415.2c-6.48,0-9.48.12-13.2.6-2.04.12-6.48-4.56-6.48-6.12,0-.36.24-.48.6-.48h.12c4.2.6,10.08,1.44,17.52,1.44h2.4c1.92,0,2.52-.48,3.48-1.44.84-1.08,2.64-3.84,3.48-4.44.72-.48,1.32-.84,2.04-.84,3,0,8.64,6.24,8.64,9.36,0,1.08-.72,1.92-2.88,1.92h-15.72ZM88.44,379.32s-6.96.6-9.48.96c-2.04.36-6-5.28-6-6.72,0-.24.12-.36.36-.36h.12c4.92.84,8.16,1.44,13.68,1.44h5.28c1.32,0,1.68-.72,2.4-1.56.48-.6.96-.96,1.8-.96,1.8,0,9.24,4.8,9.24,7.68,0,1.08-.72,1.92-2.76,2.52-1.2.36-3,.48-3.84,1.44-2.76,3.6-11.28,12.72-14.76,15.6,10.08,12.12,23.52,21.96,39.72,26.52.36.12.6.48.6.96,0,.96-.84,2.52-1.44,2.4-1.32,0-7.44.72-10.44,2.04-.48.24-1.08.36-1.8.36-3.84,0-37.56-23.88-48.24-61.32,0-.12-.12-.24-.12-.36,0-1.08,1.32-1.8,2.52-1.8.84,0,1.56.36,1.8,1.08,3.24,9,8.04,18.12,14.28,26.4.36-.48,10.68-13.56,10.68-15.72,0-.36-.24-.6-.96-.6h-2.64ZM96.72,458.64c-5.28-7.8-13.56-13.08-18.84-16.08-.48-.24-.6-.6-.6-1.08,0-1.2,1.56-2.76,3-2.76.6,0,25.08,10.08,25.08,19.68,0,2.28-1.44,3.84-3.36,3.84-1.56,0-3.48-.96-5.28-3.6Z"/></g></g></g></svg>