<?xml version="1.0" encoding="UTF-8"?>
<svg xmlns="http://www.w3.org/2000/svg" version="1.1" viewBox="0 0 1127 1126.8">
  <defs>
    <style>
      .cls-1 {
        fill: #c6c6c6;
      }
    </style>
  </defs>
  <!-- Generator: Adobe Illustrator 28.6.0, SVG Export Plug-In . SVG Version: 1.2.0 Build 709)  -->
  <g>
    <g id="Layer_1">
      <g>
        <path class="cls-1" d="M524.5.9c-84.5,5.8-169.8,32-243,74.7C133.3,162,32.2,309.9,6.6,477.8c-4.9,32.4-6,48-6,85.5s1.1,53.6,6,85.5c21.5,140.6,96.2,268.2,208.9,357.1,76.5,60.4,166.9,99.7,262.5,114.3,32.2,4.9,48,6,85.5,6s53.4-1.1,85.5-6c140.6-21.5,268.2-96.1,357.1-208.9,60.4-76.5,99.6-166.6,114.3-262.5,4.9-31.9,6-47.9,6-85.5s-1.1-53.1-6-85.5c-21.4-140.1-95.6-267.4-207.9-356.6C823.4,50.5,714.5,8.5,600.2.8c-17.6-1.1-58-1.1-75.7.1ZM603.5,78.3c97,8.3,184.8,42.9,261,102.9,33.9,26.6,67.4,61.6,93.2,97.1,77.5,106.9,107.9,240,84.7,371-18.8,106.2-75,205.9-156.4,277.9-35,30.9-68.9,53.4-111.5,74.2-132.1,64.4-289.3,64.5-421.3.4-10.1-4.9-22.5-11.3-27.5-14.1-107.8-61.2-187.7-158.9-225.6-276.1-24.9-77-29.8-162.3-14-242.3,12.1-61.5,34.9-117.2,70.3-172.4,25.9-40.3,66.4-84.5,106.1-115.7,75.6-59.5,163.7-94.4,259.5-102.9,20.2-1.8,61-1.8,81.5,0Z"/>
        <path class="cls-1" d="M550.8,155.7c-10.8,4.3-19.1,12.2-23,21.9l-2.3,5.7-.3,170.7-.2,170.8-171.3.2-171.2.3-6.6,3.2c-7.9,3.9-15,11.1-18.7,19.1-2.4,5-2.7,6.9-2.7,15.7s.3,10.7,2.6,15.6c5,10.6,14.3,18.5,25.4,21.4,5.2,1.3,27.5,1.5,195.5,1.5s190.4-.3,194.5-1.4c11.9-3.1,20.6-10.3,25.8-21.4l3.2-6.7V183.3l-2.3-5.7c-3.3-8.1-10.8-16-19-20-5.8-2.9-7.8-3.3-15.7-3.6-6.9-.1-10.1.2-13.7,1.7Z"/>
      </g>
    </g>
  </g>
</svg>