<?xml version="1.0" encoding="UTF-8"?><svg id="Layer_2" xmlns="http://www.w3.org/2000/svg" viewBox="0 0 299.55 59.43"><defs><style>.cls-1{isolation:isolate;}.cls-2{fill:#c6c6c6;}</style></defs><g id="Layer_1-2"><g id="_熊野寮祭_2024" class="cls-1"><g class="cls-1"><path class="cls-2" d="M3.96,36.81c.69-1.74,1.17-3.75,1.29-4.8.03-.27-.03-.39.18-.39.51,0,2.58.69,2.58,1.32,0,.3-.39.48-.87.54-.3.03-.42.09-.63.57-.36.69-.81,1.8-1.32,2.7,1.77-.12,3.69-.3,5.4-.54-.57-.66-1.2-1.26-1.8-1.68-.06-.03-.09-.09-.09-.15,0-.27.3-.63.63-.63.12,0,4.2,1.98,4.2,3.99,0,.6-.36,1.05-.81,1.05-.3,0-.66-.21-.96-.81-.12-.27-.27-.51-.45-.78-2.76.51-6.15.9-9.33,1.23-.24.03-.39.6-.66.6-.39,0-1.32-2.04-1.32-2.25,0-.09.06-.12.15-.12h.09c.48.09,1.11.12,1.86.15h1.86ZM.27,58.56c0-.39.3-.87.93-1.08,1.77-.6,2.88-2.01,3.45-3.45.06-.15.21-.21.36-.21.39,0,.84.3.84.6,0,1.08-2.55,5.01-4.62,5.01-.6,0-.96-.39-.96-.87ZM11.31,49.8c0,1.77-1.47,2.58-2.55,2.58-.12,0-.21-.03-.33-.18-.39-.42-1.32-.63-2.19-.84-.18-.03-.24-.21-.24-.42,0-.33.15-.66.36-.66h.03c.99.15,1.74.24,2.25.24.81,0,1.14-.24,1.17-.99v-2.25h-5.01v4.74c0,.54-.57.87-1.08.87-.42,0-.75-.21-.75-.66v-.15c.27-1.71.48-5.58.48-8.76,0-1.65-.06-3.09-.18-3.96v-.12c0-.09,0-.12.12-.12.15,0,.48.06,2.31.96h3.18c.66,0,.6-.24.99-.54.21-.18.33-.33.54-.33.66,0,1.95.99,1.95,1.41,0,.24-.21.48-.75.69-.39.18-.48.24-.48,1.29,0,1.5.15,5.7.18,7.08v.12ZM9.81,44.19h-4.98c0,.6-.03,1.26-.03,1.95h5.01v-1.95ZM5.34,41.19l-.03.03c-.36.21-.45.36-.45.6,0,.33,0,.75-.03,1.23h4.95c0-.57,0-1.08-.03-1.41,0-.21-.06-.45-.57-.45h-3.84ZM9.27,58.2c0-.12.03-.24.06-.39.09-.39.15-.84.15-1.29,0-.75-.12-1.53-.36-2.13,0-.03-.03-.06-.03-.09,0-.21.42-.36.75-.36.21,0,.39.03.45.15.42.84,1.02,2.31,1.02,3.39,0,1.2-.78,1.59-1.26,1.59-.42,0-.78-.27-.78-.87ZM16.02,57.93c-.24-1.08-1.05-2.64-1.8-3.36-.06-.06-.06-.09-.06-.15,0-.27.42-.54.72-.54.39,0,3.03,2.25,3.03,3.87,0,.72-.48,1.2-.96,1.2-.39,0-.78-.3-.93-1.02ZM24.72,36.81c-.12,1.2-.15,1.44-.15,1.59,0,.3.09.48.39.66.39.21.57.33.57.72,0,1.29-3.75,1.65-6.39,1.65-1.86,0-4.62-.09-4.62-2.28v-.06c.03-.75.09-2.31.09-3.54,0-.45,0-.84-.03-1.17,0-.45-.06-.9-.15-1.35-.06-.21-.09-.33-.09-.45s.06-.15.3-.15c.51,0,2.4.27,2.4.75,0,.27-.3.54-.6.75-.24.15-.3.42-.33.81,0,.24-.03,1.02-.03,1.83,3.87-1.65,4.71-2.28,5.46-3.03.09-.09.15-.15.21-.15.3,0,1.53,1.68,1.53,2.22,0,.24-.15.33-.39.33s-.51-.09-.84-.21c-.09-.03-.18-.06-.27-.06-.06,0-4.74,1.74-5.73,2.1v1.08c0,.99,1.14,1.23,3.33,1.23,3.72,0,3.78-.42,4.17-3.33.03-.27.3-.39.57-.39.3,0,.6.15.6.42v.03ZM25.11,49.08c0,.33.06.57.36.75.42.21.6.33.6.72,0,.63-.87,1.71-6.78,1.71-2.97,0-4.77-.48-4.77-2.34v-.06c.03-.78.09-2.79.09-4.26,0-.54,0-.99-.03-1.32,0-.42-.06-.87-.15-1.32-.06-.21-.09-.33-.09-.45s.06-.15.3-.15c.48,0,2.4.18,2.4.75,0,.24-.3.51-.6.75-.24.15-.3.42-.33.81,0,.24-.03,1.14-.03,2.1,3.72-1.62,4.83-2.28,5.61-3.15.09-.09.15-.15.21-.15.33,0,1.56,1.86,1.56,2.28,0,.24-.18.33-.42.33-.21,0-.51-.09-.81-.21-.09-.03-.18-.06-.27-.06-.15,0-.27.06-.48.15l-5.43,2.04v1.62c0,.6.12,1.23,3.45,1.23,1.05,0,2.13-.06,2.7-.15,1.38-.24,1.47-.51,1.89-3.27.03-.27.3-.39.57-.39.3,0,.6.15.6.42,0,.09-.09.78-.15,1.32v.3ZM23.85,58.32c-.78-1.41-2.61-2.85-4.02-3.75-.06-.06-.09-.12-.09-.18,0-.3.45-.69.78-.69.15,0,5.28,2.46,5.28,4.32,0,.63-.42,1.08-.9,1.08-.36,0-.75-.21-1.05-.78Z"/><path class="cls-2" d="M37.53,49.5c0,.9.03,1.83.03,2.85,2.85-.81,5.49-1.59,6.27-1.92.06-.03.12-.03.18-.03.33,0,.54.36.54.69,0,.6-.15.66-13.35,4.77-.36.12-.54.9-.96.9-.48,0-1.41-1.5-1.62-2.22-.03-.06-.03-.09-.03-.15,0-.09.09-.15.27-.15,1.17-.03,4.17-.69,7.2-1.5l.06-3.24h-.12c-1.92.03-2.58.27-3.63.42-.69.12-1.62-1.35-1.62-1.68,0-.09.03-.15.15-.15h.03c1.11.15,3.06.33,5.19.33.03-1.32.06-2.7.06-4.02h-2.88l.03,1.14c0,.51-.51.81-.99.81-.39,0-.72-.18-.72-.66v-.09c.18-1.77.27-3.81.27-5.94,0-1.23-.06-4.47-.3-6.21v-.15c0-.09,0-.12.09-.12.42,0,1.83.93,1.92.99h6.24c.66,0,.51-.24.9-.66.15-.12.27-.24.42-.24.3,0,2.1.93,2.1,1.59,0,.27-.24.51-.78.78-.36.15-.48.27-.48,2.22s.15,5.04.24,7.17c.03.51-.57.75-.99.75-.36,0-.66-.18-.66-.57v-.81h-3.09c0,1.32,0,2.61.03,3.99l1.2-.03c.48,0,.6-.15.87-.48.99-1.2,1.08-1.32,1.35-1.32.81,0,2.16,1.65,2.16,2.37,0,.27-.21.48-.72.48l-4.86.09ZM36.12,36.63c0-.63-.03-.99-.06-1.32h-2.28l-.21.15c-.21.15-.33.33-.33.54v2.82h2.94l-.06-2.19ZM36.18,39.93h-2.91c0,1.08.03,2.13.03,3.3h2.88v-3.3ZM40.62,43.23c.03-1.05.03-2.19.03-3.3h-3.12c0,1.14,0,2.22-.03,3.3h3.12ZM40.65,38.83c0-1.26-.03-2.37-.03-3.09,0-.21-.06-.42-.45-.42h-2.04c.12.06.18.12.18.21,0,.12-.09.24-.3.36s-.42.06-.42.69c0,.78-.03,1.53-.03,2.25h3.09ZM49.8,55.74c0,1.95-2.1,2.7-2.91,2.7-.15,0-.24-.03-.39-.21-.45-.6-2.16-.81-2.97-.96-.15-.03-.21-.24-.21-.45,0-.33.15-.75.36-.72,1.41.15,2.4.27,3.12.27.96,0,1.32-.27,1.35-1.2.03-1.05.06-3.75.06-6.15,0-1.56-.03-3-.06-3.81,0-.69-.06-1.29-.12-1.65-1.29.06-2.91.21-3.78.3-.6.06-1.83-1.38-1.83-1.83,0-.09.03-.12.12-.12h.03c1.77.21,4.77.45,6.42.45h4.86c.33,0,.54-.3.72-.51.18-.18.3-.3.51-.3.09,0,.21.03.33.06.6.3,1.92,1.17,1.92,1.71,0,.33-.27.63-.96.81-.24.06-.69.12-.93.39-2.88,3.09-3,3.15-3.27,3.15-.36,0-.78-.36-.78-.63,0-.06.03-.12.06-.15.6-.66,2.34-2.91,2.34-3.21,0-.09-.12-.15-.3-.15h-3.81c.42.15.93.3.93.57,0,.12-.15.3-.6.54-.33.15-.33.3-.33,3.27,0,2.79.06,6.42.12,7.62v.21ZM49.2,35.41c-1.02,0-2.73.18-3.75.3-.57.09-1.71-1.38-1.71-1.77,0-.06.03-.09.12-.09h.03c1.56.18,3.48.39,4.92.39h2.58c.3,0,.51-.24.69-.42.15-.18.27-.27.45-.27.45,0,2.07,1.05,2.07,1.74,0,.27-.21.51-.72.69-.3.09-.75.21-.99.45-.72.81-2.04,2.4-2.88,3.21.42.3.75,1.2.75,1.5,0,.54-.33.9-.72.9-.3,0-.69-.21-1.02-.75-.66-1.08-2.25-2.49-3.21-3.06-.09-.06-.12-.15-.12-.24,0-.27.33-.66.66-.66.27,0,1.71.72,2.91,1.65.78-1.08,2.13-3.27,2.13-3.45,0-.09-.09-.12-.24-.12h-1.95Z"/><path class="cls-2" d="M76.95,51.66h-2.46c.12.03.24.09.33.15.09.03.21.12.21.27,0,.12-.12.27-.54.48-.3.21-.3.6-.3,1.11,0,.96.09,1.83.09,2.79,0,1.38-1.62,2.46-2.73,2.46-.15,0-.27-.09-.39-.27-.45-.63-2.22-.78-3-.93-.18-.03-.24-.21-.24-.42,0-.3.15-.63.33-.63h.03c.93.09,1.95.27,2.79.27.93,0,1.62-.21,1.62-1.02v-.03s.03-.24.03-.81c0-1.08-.09-2.88-.18-3.42h-3.03l.03.33c0,.48-.51.75-.96.75-.36,0-.69-.18-.69-.6v-.09c.15-1.53.24-3.36.24-4.71,0-.33-.03-.66-.03-.93v-.09c-4.65,4.32-9.03,5.73-9.06,5.73-.36,0-.72-.48-.72-.81,0-.12.06-.21.18-.27,5.79-2.19,10.11-6.9,12.24-9.99h-1.2c-.84,0-4.14.21-5.73.42h-.06c-.54,0-1.56-1.26-1.56-1.71,0-.09,0-.12.06-.15-.15.03-.27.06-.39.06-.6,0-.99-.48-.99-1.02,0-.39.24-.84.81-1.11,1.47-.72,2.13-1.86,2.37-3.72.03-.18.24-.27.48-.27.33,0,.75.18.75.45,0,0-.03.72-.12,1.23h7.38c0-.42-.03-.93-.03-1.5-.06-.93-.15-1.29-.33-2.22,0-.06-.03-.15-.03-.21,0-.12.06-.21.27-.21h.12c2.55.39,2.88.48,2.88.9,0,.3-.39.63-.96.87-.21.09-.39.18-.39,2.37h7.02c.45,0,.54-.27.78-.54.24-.24.45-.39.66-.39.27,0,2.73,1.17,2.73,2.22,0,.45-.48.81-1.59.81-.93,0-1.59.63-2.16,1.23-.06.06-.18.09-.27.09-.33,0-.75-.24-.75-.54,0-.06.03-.12.06-.18.69-1.17.72-1.29.72-1.35,0-.03-.03-.06-.3-.06h-16.11c-.66,1.98-2.07,2.91-2.55,3.06h.09c2.73.27,6.12.33,7.32.33h1.74c.81-1.26,1.14-2.76,1.17-2.88s.03-.24.15-.24c.06,0,.09.03.18.06.66.21,2.37.84,2.37,1.41,0,.27-.3.48-.96.51-.33,0-.54.42-.69.63l-.27.51h7.17c.3,0,.63-.09.87-.39.15-.18.96-1.29,1.5-1.29.78,0,2.43,1.56,2.43,2.34,0,.3-.21.48-.75.48h-2.73c1.77,1.17,1.8,1.71,1.8,1.83,0,.24-.15.42-.45.42-.18,0-.39-.06-.63-.18-.15-.06-.24-.09-.3-.09-.09,0-.18.03-.3.09-.54.3-2.07,1.35-2.85,1.77,2.16,1.56,5.13,2.94,9.21,3.42.18.03.24.21.24.39,0,.3-.15.6-.33.63-.33,0-1.62.24-2.58.93-.12.09-.24.15-.39.15-.27,0-3.57-1.02-6.9-3.99,0,.12-.03.27-.03.48v.45c0,1.23.15,3.9.18,4.56.03.48-.39.84-.93.84-.36,0-.69-.21-.69-.66v-.36ZM69.69,55.17c-.09,0-.21,0-.33-.03-.09-.03-.15-.03-.21-.03-.18,0-.33.06-.54.18-2.55,1.41-7.56,3.39-9.03,3.39-.33,0-.57-.39-.57-.69,0-.21.09-.39.27-.42,1.17-.33,7.5-2.43,9-4.56.09-.12.12-.15.18-.15.36,0,1.71,1.5,1.71,1.98,0,.24-.18.33-.48.33ZM65.67,44.49c-.51-.69-1.77-1.47-2.52-1.86-.09-.03-.12-.12-.12-.18,0-.27.36-.69.63-.69.06,0,3.72.9,3.72,2.49,0,.48-.33.9-.75.9-.27,0-.63-.18-.96-.66ZM69.87,45.78c-.39.39-.42.42-.42.57v1.2h7.59c0-.54,0-1.02-.03-1.47,0-.21-.15-.3-.33-.3h-6.81ZM69.48,48.63c0,.66,0,1.29.03,1.95h7.5c0-.66.03-1.32.03-1.95h-7.56ZM72.66,40.98c-.72,1.08-1.68,2.34-2.85,3.63l.09.06h6.63c.09,0,.15,0,.18-.03-1.26-1.38-2.16-2.73-2.76-3.66h-1.29ZM75.27,40.98c.69.93,1.68,2.07,3.03,3.18,2.34-2.04,2.91-2.52,3.18-3.18h-6.21ZM82.83,57.51c-1.41-1.41-3.69-2.34-6.24-3.15-.15-.06-.24-.18-.24-.36,0-.3.27-.69.57-.69.27,0,7.89,1.35,7.89,3.96,0,.51-.3.9-.75.9-.33,0-.75-.18-1.23-.66Z"/><path class="cls-2" d="M96.96,36.54l-1.38,1.83c1.44.24,2.61.72,2.61,1.62,0,.42-.3.78-.69.78-.21,0-.45-.09-.66-.3-.6-.51-1.35-.9-2.07-1.11-.63.75-1.26,1.47-1.95,2.16,2.43.48,2.97,1.14,2.97,1.8,0,.45-.33.78-.72.78-.21,0-.45-.09-.69-.33-.69-.69-1.62-1.17-2.46-1.38-.84.81-1.68,1.5-2.01,1.5-.39,0-.81-.33-.81-.63,0-.09.03-.15.12-.21,3.75-2.94,7.95-9.51,8.1-10.77.03-.12,0-.27.18-.27.21,0,2.58.9,2.58,1.41,0,.21-.27.39-.99.45-.27.03-.42,0-.63.39-.18.3-.42.69-.69,1.08h2.97c.33,0,.48-.15.69-.39.12-.15.24-.27.39-.27.51,0,1.8,1.17,1.8,1.56,0,.27-.21.51-.57.63-.39.12-.51.21-.63.48-1.98,4.02-6.93,11.28-13.95,14.55-.03.03-.09.03-.15.03-.33,0-.75-.45-.75-.78,0-.12.03-.24.18-.3,8.34-4.05,12.99-13.83,12.99-14.22,0-.06-.06-.09-.18-.09h-3.6ZM98.7,53.16c-.24,0-.42.15-.6.33-2.76,2.82-6.24,4.44-6.78,4.44-.42,0-.78-.39-.78-.72,0-.12.06-.24.21-.3,2.43-1.11,5.88-3.84,6.57-5.61.06-.15.15-.21.27-.21.15,0,2.16,1.11,2.16,1.74,0,.21-.18.36-.63.36-.09,0-.21,0-.36-.03h-.06ZM104.67,49.53c.06.03.12.09.12.18s-.12.24-.51.36c-.18.06-.24.3-.24.54-.03.24-.03.72-.03,1.26,0,1.38.06,3.33.09,4.32v.12c0,.96-.6,2.1-2.52,2.34-.18,0-.27-.06-.42-.24-.39-.51-1.95-.63-2.64-.75-.24-.03-.33-.27-.33-.51,0-.3.15-.57.42-.57h.03c1.11.15,1.92.24,2.52.24,1.02,0,1.32-.3,1.35-1.17,0-5.22,0-5.34-.09-6.12h-1.56c-1.53,0-3.24.15-4.89.39-.48.06-1.56-1.14-1.56-1.71,0-.09.06-.15.15-.15h.03c2.43.24,4.68.39,6.42.39h6.09c.48,0,.69-.3.9-.57.18-.27.93-1.23,1.41-1.23.81,0,2.37,1.65,2.37,2.43,0,.27-.18.45-.69.45h-6.42ZM103.11,45.42c-1.62,0-2.37.03-3.3.15-.51.03-1.62-1.14-1.62-1.53,0-.09.06-.12.15-.12h.03c1.05.15,2.52.36,4.38.36h.6c.48,0,.63-.12.87-.36.21-.27.66-.96.87-1.11.18-.12.33-.21.51-.21.75,0,2.16,1.56,2.16,2.34,0,.27-.18.48-.72.48h-3.93ZM109.68,36.46s-1.74.15-2.37.24c-.51.09-1.5-1.32-1.5-1.68,0-.06.03-.09.09-.09h.03c1.23.21,2.04.36,3.42.36h1.32c.33,0,.42-.18.6-.39.12-.15.24-.24.45-.24.45,0,2.31,1.2,2.31,1.92,0,.27-.18.48-.69.63-.3.09-.75.12-.96.36-.69.9-2.82,3.18-3.69,3.9,2.52,3.03,5.88,5.49,9.93,6.63.09.03.15.12.15.24,0,.24-.21.63-.36.6-.33,0-1.86.18-2.61.51-.12.06-.27.09-.45.09-.96,0-9.39-5.97-12.06-15.33,0-.03-.03-.06-.03-.09,0-.27.33-.45.63-.45.21,0,.39.09.45.27.81,2.25,2.01,4.53,3.57,6.6.09-.12,2.67-3.39,2.67-3.93,0-.09-.06-.15-.24-.15h-.66ZM111.75,56.28c-1.32-1.95-3.39-3.27-4.71-4.02-.12-.06-.15-.15-.15-.27,0-.3.39-.69.75-.69.15,0,6.27,2.52,6.27,4.92,0,.57-.36.96-.84.96-.39,0-.87-.24-1.32-.9Z"/></g><g class="cls-1"><path class="cls-2" d="M147.82,49.22h19.65v7.49h-35.44l18.32-22.18c1.8-2.21,3.31-4.12,4.53-5.74,1.22-1.62,2.15-2.97,2.79-4.07,1.3-2.14,1.95-4.07,1.95-5.78,0-2.46-.87-4.52-2.6-6.19-1.73-1.66-3.87-2.5-6.43-2.5-5.33,0-8.39,3.16-9.16,9.47h-7.93c1.28-11.12,6.89-16.68,16.85-16.68,4.81,0,8.84,1.53,12.1,4.58,3.28,3.05,4.92,6.84,4.92,11.35,0,2.87-.76,5.69-2.29,8.44-.77,1.44-1.91,3.14-3.4,5.11s-3.38,4.3-5.66,6.99l-8.2,9.71Z"/><path class="cls-2" d="M176.47,29.98c0-8.41,1.96-15.12,5.88-20.13,3.51-4.53,7.76-6.8,12.75-6.8s9.24,2.27,12.75,6.8c3.92,5.01,5.88,11.84,5.88,20.47s-1.96,15.43-5.88,20.44c-3.51,4.54-7.75,6.8-12.71,6.8s-9.23-2.27-12.78-6.8c-3.92-5.01-5.88-11.94-5.88-20.78ZM184.29,30.01c0,5.86,1.01,10.72,3.04,14.59,2.03,3.81,4.61,5.71,7.76,5.71s5.71-1.9,7.76-5.71c2.05-3.78,3.08-8.56,3.08-14.32s-1.03-10.55-3.08-14.36c-2.05-3.78-4.64-5.67-7.76-5.67s-5.67,1.89-7.72,5.67c-2.05,3.76-3.08,8.45-3.08,14.08Z"/><path class="cls-2" d="M234.23,49.22h19.65v7.49h-35.44l18.32-22.18c1.8-2.21,3.31-4.12,4.53-5.74,1.22-1.62,2.15-2.97,2.79-4.07,1.3-2.14,1.95-4.07,1.95-5.78,0-2.46-.87-4.52-2.6-6.19-1.73-1.66-3.87-2.5-6.43-2.5-5.33,0-8.39,3.16-9.16,9.47h-7.93c1.28-11.12,6.89-16.68,16.85-16.68,4.81,0,8.84,1.53,12.1,4.58,3.28,3.05,4.92,6.84,4.92,11.35,0,2.87-.76,5.69-2.29,8.44-.77,1.44-1.91,3.14-3.4,5.11s-3.38,4.3-5.66,6.99l-8.2,9.71Z"/><path class="cls-2" d="M293.94,41.97h5.61v7.25h-5.61v7.49h-7.96v-7.49h-25.91L293.94,0v41.97ZM285.98,41.97v-17.67l-12.17,17.67h12.17Z"/></g></g></g></svg>