<?xml version="1.0" encoding="UTF-8"?><svg id="Layer_2" xmlns="http://www.w3.org/2000/svg" viewBox="0 0 311.1 106.89"><defs><style>.cls-1{isolation:isolate;}.cls-2{fill:#3bff59;}</style></defs><g id="Layer_1-2"><g id="_2024" class="cls-1"><g class="cls-1"><path class="cls-2" d="M29.33,91.41h36.5v13.9H0l34.02-41.2c3.34-4.1,6.15-7.66,8.41-10.66,2.26-3,3.99-5.52,5.17-7.55,2.41-3.98,3.62-7.55,3.62-10.73,0-4.57-1.61-8.4-4.82-11.49-3.22-3.09-7.2-4.63-11.93-4.63-9.9,0-15.57,5.86-17.01,17.58H2.73C5.1,15.98,15.53,5.65,34.02,5.65c8.93,0,16.42,2.84,22.47,8.51,6.09,5.67,9.14,12.7,9.14,21.07,0,5.33-1.42,10.56-4.25,15.68-1.44,2.67-3.54,5.83-6.32,9.49-2.77,3.66-6.27,7.99-10.5,12.98l-15.23,18.03Z"/><path class="cls-2" d="M82.52,55.67c0-15.62,3.64-28.08,10.92-37.39,6.52-8.42,14.41-12.63,23.68-12.63s17.16,4.21,23.68,12.63c7.28,9.31,10.92,21.98,10.92,38.02s-3.64,28.65-10.92,37.96c-6.52,8.42-14.39,12.63-23.61,12.63s-17.14-4.21-23.74-12.63c-7.28-9.31-10.92-22.17-10.92-38.59ZM97.06,55.73c0,10.88,1.88,19.91,5.65,27.1,3.77,7.07,8.57,10.6,14.41,10.6s10.6-3.53,14.41-10.6c3.81-7.02,5.71-15.89,5.71-26.6s-1.9-19.59-5.71-26.66c-3.81-7.02-8.61-10.54-14.41-10.54s-10.54,3.51-14.35,10.54c-3.81,6.98-5.71,15.7-5.71,26.15Z"/><path class="cls-2" d="M189.79,91.41h36.5v13.9h-65.83l34.02-41.2c3.34-4.1,6.15-7.66,8.41-10.66,2.26-3,3.99-5.52,5.17-7.55,2.41-3.98,3.62-7.55,3.62-10.73,0-4.57-1.61-8.4-4.82-11.49-3.22-3.09-7.2-4.63-11.93-4.63-9.9,0-15.57,5.86-17.01,17.58h-14.73c2.37-20.65,12.8-30.98,31.29-30.98,8.93,0,16.42,2.84,22.47,8.51,6.09,5.67,9.14,12.7,9.14,21.07,0,5.33-1.42,10.56-4.25,15.68-1.44,2.67-3.54,5.83-6.32,9.49-2.77,3.66-6.27,7.99-10.5,12.98l-15.23,18.03Z"/><path class="cls-2" d="M300.69,77.95h10.41v13.46h-10.41v13.9h-14.79v-13.9h-48.12L300.69,0v77.95ZM285.9,77.95v-32.82l-22.6,32.82h22.6Z"/></g></g></g></svg>